<svg width="340" height="318" viewBox="0 0 340 318" fill="none" xmlns="http://www.w3.org/2000/svg" xmlns:xlink="http://www.w3.org/1999/xlink">
<path fill-rule="evenodd" clip-rule="evenodd" d="M4.81678 132.866C1.90966 124.343 5.14076 113.996 12.2841 108.512C17.3994 104.586 23.0023 100.262 26.8589 97.2785L121.192 63.3709C128.111 60.8836 135.715 64.626 137.965 71.6265L142.724 86.4316L157.515 80.022L159.981 87.9107C163.917 83.1442 167.122 81.3643 173.786 79.0359L151.905 64.8364C142.467 58.7117 144.737 44.3033 155.602 41.3783L191.535 31.7039C187.175 20.5395 191.535 9.517 204.847 6.55874C206.459 1.45649 212.005 -1.26664 217.027 0.578347L223.882 3.09661C228.265 4.70659 230.385 9.67677 228.514 13.9544L228.609 14.0775C230.686 16.7688 231.972 18.436 232.458 21.3499C239.586 19.2864 245.748 26.7134 242.403 33.3381L225.555 66.7099C239.36 63.4528 248.728 66.2169 255.138 75.5846C271.916 77.0209 278.804 90.3761 273.38 102.702C287.186 130.313 247.249 152.993 198.438 151.02C195.48 153.486 191.548 155.594 186.112 155.951L180.195 163.839C198.438 153.486 213.229 162.36 218.16 184.054C223.09 205.748 226.048 218.074 226.048 218.074L247.249 220.046C272.337 167.835 293.554 160.058 325.92 157.474C334.458 156.792 341.124 164.69 339.322 173.064L315.64 283.067C313.923 291.044 305.366 295.486 297.854 292.299L296.06 291.538C296.782 293.356 297.408 294.991 297.963 296.517C300.828 304.382 294.466 312.217 286.096 312.188L176.027 311.803C168.264 311.776 162.255 304.995 163.162 297.284L163.432 294.989C160.337 304.001 157.701 307.358 151.106 309.78C146.668 316.19 135.328 320.035 125.468 315.697C119.456 313.052 114.618 309.469 109.98 306.034C105.107 302.426 100.456 298.982 94.8988 296.961C89.5858 295.029 85.4766 294.494 81.6714 293.998C77.708 293.482 74.0743 293.008 69.7536 291.045C64.3302 288.579 61.865 286.114 59.3998 283.156C55.0732 282.62 52.5423 281.935 48.5528 277.239C-4.10258 283.206 -13.0776 252.094 17.4911 217.088L12.7416 205.691C9.49855 197.231 12.9861 184.86 21.4354 181.589L4.81678 132.866ZM169.841 215.116H174.772V211.172L169.841 215.116ZM149.627 256.038C158.203 262.578 161.955 266.551 166.39 274.281L168.362 259.983L149.627 256.038Z" fill="#F4F4F4"/>
<path d="M303.468 283.937C231.99 260.726 142.524 242.012 81.3398 231.855L93.0645 225.21C158.682 225.218 193.235 228.096 255.616 232.895L256.416 232.956L256.649 232.189C263.048 211.146 271.499 196.447 283.029 186.526C294.278 176.848 308.56 171.63 326.992 169.611L303.468 283.937Z" fill="#994BFF"/>
<path d="M303.468 283.937C231.99 260.726 142.524 242.012 81.3398 231.855L93.0645 225.21C158.682 225.218 193.235 228.096 255.616 232.895L256.416 232.956L256.649 232.189C263.048 211.146 271.499 196.447 283.029 186.526C294.278 176.848 308.56 171.63 326.992 169.611L303.468 283.937Z" stroke="#131313" stroke-width="2"/>
<path d="M155.269 182.406L183.618 140.603L169.684 133.396L150.944 172.797L155.269 182.406Z" fill="#131313"/>
<path d="M18.0739 117.502L30.9168 107.343C31.3654 106.988 32.0197 107.081 32.3516 107.547L66.8569 155.979L76.4669 233.82L40.91 246.313L23.7575 204.211C21.5911 198.894 24.3376 192.848 29.7677 190.982L35.144 189.133L14.7978 128.528C13.4555 124.53 14.7661 120.119 18.0739 117.502Z" fill="#994BFF"/>
<path d="M18.0739 117.502L30.9168 107.343C31.3654 106.988 32.0197 107.081 32.3516 107.547L66.8569 155.979L76.4669 233.82L40.91 246.313L23.7575 204.211C21.5911 198.894 24.3376 192.848 29.7677 190.982L35.144 189.133L14.7978 128.528C13.4555 124.53 14.7661 120.119 18.0739 117.502Z" stroke="#131313" stroke-width="2"/>
<path d="M126.438 73.3334L31.7803 106.968L75.5056 234.3L165.839 201.146L126.438 73.3334Z" fill="#F4F4F4" stroke="#131313" stroke-width="2"/>
<rect width="80.9436" height="91.0272" rx="10" transform="matrix(0.936545 -0.350548 0.345981 0.938242 43.582 117.229)" fill="#994BFF"/>
<path d="M52.8403 212.596C55.1834 210.253 55.1834 206.454 52.8403 204.111C50.4972 201.768 46.6982 201.768 44.355 204.111L48.5977 208.354L52.8403 212.596ZM48.5977 208.354L44.355 204.111C43.6729 204.793 33.5941 214.624 24.713 225.602C20.3048 231.051 15.9493 237.074 13.2201 242.583C11.8633 245.322 10.7339 248.275 10.3536 251.182C9.96911 254.122 10.2866 257.676 12.7018 260.659L17.3652 256.884L22.0287 253.109C22.4018 253.57 22.1186 253.76 22.2522 252.739C22.3899 251.686 22.8972 250.082 23.9729 247.91C26.1088 243.599 29.8017 238.391 34.0424 233.149C42.4592 222.745 52.0809 213.356 52.8403 212.596L48.5977 208.354ZM17.3652 256.884L12.7018 260.659C16.1022 264.86 21.1202 266.581 25.8121 267.36C30.5548 268.148 36.0276 268.137 41.4366 267.987C52.7296 267.673 64.3458 266.788 74.7374 268.999L75.9861 263.13L77.2347 257.262C65.0429 254.668 51.4329 255.705 41.1034 255.991C35.7013 256.142 31.2638 256.101 27.7779 255.522C24.2413 254.935 22.7126 253.953 22.0287 253.109L17.3652 256.884Z" fill="#131313"/>
<path d="M136.901 253.688C133.634 247.698 108.584 246.064 96.6035 248.242L135.268 262.945C135.812 261.312 139.875 259.139 136.901 253.688Z" fill="#F4F4F4" stroke="#131313" stroke-width="2"/>
<path d="M55.2169 256.41C62.2962 242.252 74.8212 245.519 75.9106 250.964C86.2573 244.43 109.394 247.599 127.644 256.41C143.436 264.034 169.255 282.753 152.058 291.263C153.25 296.988 149.167 301.312 143.117 299.976C143.025 302.497 141.873 305.08 138.535 306.511C130.911 309.778 121.131 301.259 110.218 293.985C102.049 288.54 91.9547 286.753 80.7912 284.272C72.1422 282.35 66.0238 277.033 64.9346 273.221C60.5782 274.855 48.4934 269.857 55.2169 256.41Z" fill="#F4F4F4" stroke="#131313" stroke-width="2"/>
<path d="M187.943 194.419L124.037 224.69H102.414L118.271 218.444L172.4 181.945C183.822 174.244 189.533 170.393 194.785 171.08C197.15 171.39 199.396 172.299 201.312 173.72C205.565 176.877 206.993 183.615 209.85 197.091L221.097 250.157C248.966 252.559 280.679 268.416 288.367 301.57H174.008L187.943 194.419Z" fill="#994BFF" stroke="#131313" stroke-width="2"/>
<mask id="mask0_chilling" style="mask-type:alpha" maskUnits="userSpaceOnUse" x="34" y="95" width="119" height="74">
<path d="M149.502 95.4362L34.6631 141.564C41.3901 155.498 59.649 175.019 79.83 167.03C102.413 158.091 99.8507 132.755 96.6474 124.747C101.452 133.396 114.089 153.698 137.49 144.447C158.151 136.279 153.346 109.371 149.502 95.4362Z" fill="black"/>
</mask>
<g mask="url(#mask0_chilling)">
<path d="M149.502 95.4362L34.6631 141.564C41.3901 155.498 59.649 175.019 79.83 167.03C102.413 158.091 99.8507 132.755 96.6474 124.747C101.452 133.396 114.089 153.698 137.49 144.447C158.151 136.279 153.346 109.371 149.502 95.4362Z" fill="#131313"/>
</g>
<path d="M149.502 96.3973L34.6631 142.525C41.3901 156.46 59.649 175.98 79.83 167.992C102.413 159.052 99.8507 133.716 96.6474 125.708C101.452 134.357 114.089 154.659 137.49 145.408C158.151 137.24 153.346 110.332 149.502 96.3973Z" stroke="#131313" stroke-width="2"/>
<path d="M174.97 121.864C170.805 115.938 160.651 105.143 164.879 97.8389C169.107 90.5353 203.319 80.0605 202.839 94.9559L209.566 91.5925C208.001 80.2512 239.837 71.4115 245.122 81.5019C247.615 86.2609 245.635 91.6379 242.108 96.3202C248.361 89.7365 255.342 83.231 261.459 89.6704C268.166 96.7295 259.316 105.679 254.103 109.452C257.98 106.99 262.964 105.435 264.342 111.293C266.604 120.903 258.096 131.954 228.785 138.201C209.085 142.399 198.995 142.525 193.709 139.642C191.787 144.447 184.58 149.252 170.645 139.642C158.434 131.221 169.204 122.344 174.97 121.864Z" fill="#F4F4F4" stroke="#131313" stroke-width="2"/>
<path d="M199.474 81.9824L156.71 53.6329L228.304 34.8935L205.24 80.0604L216.292 110.812L235.031 114.176L197.552 127.63L207.643 112.734L199.474 81.9824Z" fill="#131313"/>
<path d="M100.973 163.667C103.856 170.394 109.776 178.418 116.349 175.68C122.115 173.277 121.634 163.667 118.751 155.979" stroke="#131313" stroke-width="2"/>
<path d="M105.297 213.158L100.012 200.666L115.868 199.705L126.439 189.134L131.725 201.627L116.829 203.068L105.297 213.158Z" fill="#131313"/>
<path d="M199.474 75.2553L175.93 60.3598L214.37 49.7889L199.474 75.2553Z" fill="#994BFF"/>
<path d="M197.421 68.1902L215.95 12.4754" stroke="#F4F4F4" stroke-width="3"/>
<ellipse cx="211.187" cy="25.94" rx="10.571" ry="8.64898" transform="rotate(7.21646 211.187 25.94)" fill="#131313"/>
<ellipse cx="209.994" cy="23.6628" rx="5.13525" ry="3.04343" transform="rotate(7.21646 209.994 23.6628)" fill="#F4F4F4"/>
<path d="M199.474 81.9824L156.71 53.6329L228.304 34.8935L205.24 80.0604L216.292 110.812L235.031 114.176L197.552 127.63L207.643 112.734L199.474 81.9824Z" stroke="#131313" stroke-width="2"/>
</svg>
