<svg xmlns="http://www.w3.org/2000/svg" viewBox="0 0 220 240" fill="none">
  <!-- idle / chilling -->
  <ellipse cx="110" cy="218" rx="86" ry="10" fill="#000" opacity="0.10"/>
  <path d="M40 132c0-39 31-70 70-70s70 31 70 70v34c0 23-19 42-42 42H82c-23 0-42-19-42-42v-34Z" fill="#994BFF"/>
  <path d="M40 132c0-39 31-70 70-70s70 31 70 70v8H40v-8Z" fill="#7A30E6" opacity="0.30"/>
  <ellipse cx="86" cy="140" rx="9" ry="9" fill="#131313"/>
  <ellipse cx="134" cy="140" rx="9" ry="9" fill="#131313"/>
  <ellipse cx="89" cy="137" rx="3" ry="3" fill="#F4F4F4"/>
  <ellipse cx="137" cy="137" rx="3" ry="3" fill="#F4F4F4"/>
  <path d="M94 170c4 4 10 7 16 7s12-3 16-7" stroke="#131313" stroke-width="5" stroke-linecap="round" fill="none"/>
  <path d="M122 62c0-10 8-18 18-18" stroke="#131313" stroke-width="4" stroke-linecap="round" fill="none"/>
  <circle cx="140" cy="42" r="6" fill="#FFB400"/>
</svg>
