<svg width="341" height="305" viewBox="0 0 341 305" fill="none" xmlns="http://www.w3.org/2000/svg">
<path d="M87.6677 42.6208L4.40991 142.79C2.25128 145.387 1.17197 146.686 0.595922 148.209C0.381126 148.777 0.220013 149.364 0.114696 149.962C-0.167744 151.566 0.0972641 153.233 0.62728 156.569L17.3713 261.933C18.1955 267.12 18.6077 269.713 20.0586 271.644C20.5942 272.357 21.2254 272.992 21.9343 273.533C23.8544 274.998 26.4448 275.428 31.6256 276.289L197.74 303.9C204.466 305.402 207.625 305.151 212.81 303.9C220.169 305.045 225.449 302.441 228.366 298.066C243.192 296.093 250.258 292.429 262.396 284.94L324.715 261.903C332.334 259.086 336.143 257.678 337.468 256.396C341.48 252.509 340.874 245.909 336.219 242.819C334.683 241.8 330.681 241.11 322.677 239.73C322.677 239.73 323.163 205.214 322.677 184.796C322.19 164.379 304.689 160.49 304.689 160.49C304.689 160.49 303.231 123.057 302.745 107.987C302.259 92.9167 292.536 83.6801 277.466 83.6801H240.033L244.922 69.7292C250.479 53.8715 253.258 45.9426 250.373 41.5294C249.359 39.9789 247.96 38.7182 246.313 37.8709C241.624 35.4593 234.026 39.0454 218.83 46.2177L199.198 55.4842L205.556 38.7522C213.154 18.757 216.953 8.75936 213.602 4.09252C212.438 2.47154 210.843 1.20864 208.999 0.446637C203.688 -1.74721 194.826 4.24053 177.103 16.216L118.986 55.4842C120.544 37.4042 121.324 28.3641 118.096 24.8902C115.964 22.596 112.934 21.3514 109.805 21.4849C105.067 21.687 99.2673 28.6649 87.6677 42.6208Z" fill="#F4F4F4"/>
<path d="M278.565 95.3473H262.882L240.52 171.671L262.882 234.382L311.495 235.354V184.671C311.495 177.491 305.675 171.671 298.495 171.671H293.994L291.555 107.851C291.289 100.869 285.552 95.3473 278.565 95.3473Z" fill="#994BFF" stroke="#131313" stroke-width="2"/>
<path d="M243.41 232.725V278.634L211.349 279.988L229.966 229.257L243.41 232.725Z" fill="#994BFF" stroke="#131313" stroke-width="2"/>
<path d="M254.158 232.74L256.969 272.083L234.423 279.599L240.882 229.314L254.158 232.74Z" fill="#994BFF" stroke="#131313" stroke-width="2"/>
<path d="M136.487 240.702C145.238 236.397 153.988 240.702 153.988 249.452L142.321 269.87L115.584 268.898L109.75 247.508C109.75 243.781 111.792 235.646 119.959 232.924C128.126 230.201 133.895 236.651 136.487 240.702Z" fill="#F4F4F4"/>
<path d="M136.487 240.702C145.238 236.397 153.988 240.702 153.988 249.452L142.321 269.87L115.584 268.898L109.75 247.508C109.75 243.781 111.792 235.646 119.959 232.924C128.126 230.201 133.895 236.651 136.487 240.702ZM136.487 240.702C134.543 243.619 131.821 251.98 136.487 262.092M128.709 267.925C130.33 264.523 131.043 254.897 128.709 243.619" stroke="#131313" stroke-width="2"/>
<path d="M219.325 191.602C219.325 187.736 216.191 184.602 212.325 184.602C208.459 184.602 205.325 187.736 205.325 191.602H212.325H219.325ZM144.266 266.953L144.628 273.944C156.508 273.328 175.051 269.404 190.795 257.167C206.871 244.67 219.325 224.029 219.325 191.602H212.325H205.325C205.325 219.942 194.686 236.41 182.203 246.113C169.386 256.076 153.9 259.444 143.903 259.963L144.266 266.953Z" fill="#131313"/>
<path d="M159.822 229.534V95.3473H262.883V234.382L159.822 229.534Z" fill="#F4F4F4" stroke="#131313" stroke-width="2"/>
<path d="M166.775 199.117L167.033 111.791C167.049 106.201 171.647 101.69 177.238 101.78L244.549 102.862C249.992 102.949 254.346 107.373 254.346 112.816L254.346 199.061C254.346 204.6 249.842 209.103 244.302 209.103L176.732 209.103C171.214 209.103 166.758 204.634 166.775 199.117Z" fill="#994BFF"/>
<path d="M191.906 225.245L192.168 212.992L203.752 217.954L214.923 213.478L214.661 225.731L203.702 220.311L191.906 225.245Z" fill="#131313"/>
<path d="M194.823 155.142C194.823 140.072 194.336 117.709 182.669 117.709C171.488 117.709 171.002 140.558 171.002 155.142C171.002 170.698 171.488 192.173 181.697 193.061C192.878 194.033 194.823 175.073 194.823 155.142Z" fill="#F4F4F4" stroke="#131313" stroke-width="2"/>
<path d="M238.09 155.142C238.09 140.072 237.604 117.709 225.937 117.709C214.756 117.709 214.27 140.558 214.27 155.142C214.27 170.698 214.756 192.173 224.965 193.061C236.146 194.033 238.09 175.073 238.09 155.142Z" fill="#F4F4F4" stroke="#131313" stroke-width="2"/>
<path d="M210.379 144.447L242.464 135.697" stroke="#131313" stroke-width="2"/>
<path d="M167.6 142.502L199.685 152.711" stroke="#131313" stroke-width="2"/>
<path d="M220.589 160.489L214.756 159.517C214.27 172.643 216.214 191.894 225.937 193.061C235.66 194.227 238.09 171.509 238.09 160.489L225.937 159.517L224.479 183.824L220.589 160.489Z" fill="#131313"/>
<path d="M177.39 160.489L171.557 159.517C171.07 172.643 173.015 191.894 182.738 193.061C192.46 194.227 194.891 171.509 194.891 160.489L182.738 159.517L181.279 183.824L177.39 160.489Z" fill="#131313"/>
<path d="M196.768 196.037C200.981 197.178 209.407 196.722 209.407 185.769" stroke="#131313" stroke-width="2"/>
<path d="M292.245 206.186C292.245 202.32 289.111 199.186 285.245 199.186C281.379 199.186 278.245 202.32 278.245 206.186H285.245H292.245ZM217.186 281.537L217.548 288.528C229.428 287.912 247.971 283.988 263.715 271.751C279.791 259.254 292.245 238.613 292.245 206.186H285.245H278.245C278.245 234.526 267.606 250.994 255.123 260.697C242.306 270.66 226.82 274.028 216.823 274.547L217.186 281.537Z" fill="#131313"/>
<path d="M180.238 256.258C190.433 260.453 196.063 263.41 206.004 269.384C213.296 266.467 223.699 277.259 222.532 285.426C221.365 293.593 215.078 293.691 213.296 292.718C199.446 295.666 193.58 290.465 183.155 281.051L131.139 269.384L135.514 261.12C138.917 253.341 144.359 248.462 152.043 247.022C159.821 245.563 171.974 249.938 180.238 256.258Z" fill="#F4F4F4"/>
<path d="M206.004 269.384C196.063 263.41 190.433 260.453 180.238 256.258M206.004 269.384C213.296 266.467 223.699 277.259 222.532 285.426C221.365 293.593 215.078 293.691 213.296 292.718C199.446 295.666 193.58 290.465 183.155 281.051L131.139 269.384L135.514 261.12M206.004 269.384C209.082 271.653 217.671 277.162 214.754 288.343M180.238 256.258C171.974 249.938 159.821 245.563 152.043 247.022C144.359 248.462 138.917 253.341 135.514 261.12M180.238 256.258C176.954 255.485 171.996 255.004 166.627 255.657M135.514 261.12C145.626 250.23 160.469 252.941 166.627 255.657M143.778 269.384C149.402 260.245 158.486 256.648 166.627 255.657" stroke="#131313" stroke-width="2"/>
<path d="M85.929 160.489L10.0918 152.711L29.0511 265.495L109.75 280.079L85.929 160.489Z" fill="#D9D9D9" stroke="#131313" stroke-width="2"/>
<path d="M99.0554 161.948L85.9297 160.49L109.264 280.079L188.99 291.746L191.421 277.162L119.473 265.495L99.0554 161.948Z" fill="#999999" stroke="#131313" stroke-width="2"/>
<ellipse cx="56.2749" cy="213.186" rx="13.1047" ry="20.6399" transform="rotate(-7.89636 56.2749 213.186)" fill="#F4F4F4"/>
<rect x="117.596" y="271.328" width="10.695" height="3.88909" rx="1.94454" transform="rotate(8.17705 117.596 271.328)" fill="#131313"/>
<rect x="131.207" y="273.273" width="10.695" height="3.88909" rx="1.94454" transform="rotate(8.17705 131.207 273.273)" fill="#131313"/>
<rect x="144.818" y="275.218" width="4.37093" height="3.88909" rx="1.94454" transform="rotate(8.17705 144.818 275.218)" fill="#131313"/>
</svg>
