<svg xmlns="http://www.w3.org/2000/svg" viewBox="0 0 220 240" fill="none">
  <!-- thinking / coding -->
  <ellipse cx="110" cy="218" rx="86" ry="10" fill="#000" opacity="0.10"/>
  <path d="M40 132c0-39 31-70 70-70s70 31 70 70v34c0 23-19 42-42 42H82c-23 0-42-19-42-42v-34Z" fill="#994BFF"/>
  <path d="M40 132c0-39 31-70 70-70s70 31 70 70v8H40v-8Z" fill="#7A30E6" opacity="0.30"/>
  <!-- focused eyes (slightly squinted) -->
  <path d="M76 140q10-9 20 0" stroke="#131313" stroke-width="6" stroke-linecap="round" fill="none"/>
  <path d="M124 140q10-9 20 0" stroke="#131313" stroke-width="6" stroke-linecap="round" fill="none"/>
  <!-- pondering mouth -->
  <ellipse cx="110" cy="170" rx="8" ry="5" fill="#131313"/>
  <!-- thought bubble -->
  <circle cx="180" cy="74" r="14" fill="#F4F4F4" stroke="#131313" stroke-width="3"/>
  <circle cx="166" cy="90" r="6" fill="#F4F4F4" stroke="#131313" stroke-width="2.5"/>
  <circle cx="158" cy="104" r="3" fill="#F4F4F4" stroke="#131313" stroke-width="2"/>
  <text x="180" y="80" text-anchor="middle" font-family="monospace" font-size="14" font-weight="700" fill="#131313">{ }</text>
</svg>
