<svg xmlns="http://www.w3.org/2000/svg" viewBox="0 0 220 240" fill="none">
  <!-- celebrating / in love -->
  <ellipse cx="110" cy="218" rx="86" ry="10" fill="#000" opacity="0.10"/>
  <path d="M40 132c0-39 31-70 70-70s70 31 70 70v34c0 23-19 42-42 42H82c-23 0-42-19-42-42v-34Z" fill="#994BFF"/>
  <path d="M40 132c0-39 31-70 70-70s70 31 70 70v8H40v-8Z" fill="#7A30E6" opacity="0.30"/>
  <!-- heart eyes -->
  <path d="M86 134c-3-5-12-5-12 4 0 7 12 13 12 13s12-6 12-13c0-9-9-9-12-4Z" fill="#FF4F8B"/>
  <path d="M134 134c-3-5-12-5-12 4 0 7 12 13 12 13s12-6 12-13c0-9-9-9-12-4Z" fill="#FF4F8B"/>
  <!-- big smile -->
  <path d="M82 165q28 30 56 0" stroke="#131313" stroke-width="5" stroke-linecap="round" fill="none"/>
  <path d="M82 165q28 18 56 0" fill="#FF4F8B"/>
  <!-- sparkles -->
  <path d="M50 70l4 8 8 4-8 4-4 8-4-8-8-4 8-4z" fill="#FFB400"/>
  <path d="M178 88l3 6 6 3-6 3-3 6-3-6-6-3 6-3z" fill="#FFB400"/>
  <path d="M170 50l2 4 4 2-4 2-2 4-2-4-4-2 4-2z" fill="#FFB400"/>
</svg>
