<svg width="252" height="318" viewBox="0 0 252 318" fill="none" xmlns="http://www.w3.org/2000/svg" xmlns:xlink="http://www.w3.org/1999/xlink">
<path d="M100.444 16.2724L91.092 19.7732L91.0919 19.7733C88.9754 20.5655 87.9171 20.9616 87.0162 21.4277C81.4937 24.2843 77.9712 29.928 77.831 36.144C77.8082 37.158 77.9172 38.2826 78.1352 40.5318L78.1353 40.5322C70.9115 49.0177 69.7013 56.8746 75.6547 69.7504C66.7245 66.7791 53.3529 62.9012 31.9962 80.1501C10.6395 97.3989 3.71738 131.158 27.5311 135.12C31.6526 142.949 35.1496 146.003 44.8953 147.5C53.6878 153.877 63.2517 153.443 69.2051 148.491L70.0431 156.855C70.3966 160.384 73.6372 162.895 77.1431 162.357L78.1353 170.776L27.5165 176.561C22.1601 177.174 19.4819 177.48 17.5834 178.84C16.3002 179.759 15.2813 180.999 14.6289 182.436C13.6636 184.563 13.8833 187.249 14.3228 192.623L21.8777 285.003C22.3245 290.467 22.548 293.199 24.0025 295.226C24.9274 296.515 26.4169 297.694 27.8835 298.299C30.1899 299.25 32.652 298.879 37.5762 298.136C52.6791 295.858 63.126 290.845 77.1431 278.734L88.0035 303.465C89.8929 307.767 90.8376 309.919 92.707 311.332C93.8442 312.192 95.6205 312.912 97.0356 313.086C99.3618 313.373 101.21 312.62 104.906 311.113C137.532 297.817 147.129 265.953 134.197 222.774C142.751 212.883 146.666 206.392 151.561 192.566C153.362 191.395 154.179 190.895 155.53 190.09L165.452 188.109C175.128 189.786 185.793 184.642 190.258 174.738C199.176 178.342 204.304 177.644 213.576 173.747C223.994 180.185 234.413 183.156 246.816 172.757C259.219 162.357 246.32 128.682 219.529 106.892L217.545 84.6071C253.266 42.5131 232.925 17.752 211.591 19.7329L211.424 18.3966C210.748 12.9943 210.409 10.2931 209.012 8.4005C208.068 7.12158 206.802 6.11552 205.343 5.48465C203.184 4.55108 200.476 4.83157 195.061 5.39255L108.662 14.3422C106.982 14.5162 106.142 14.6033 105.315 14.7601C104.747 14.8677 104.184 14.9999 103.628 15.1564C102.817 15.3842 102.026 15.6803 100.444 16.2724Z" fill="#F4F4F4"/>
<path d="M141.544 122.194C137.028 155.851 129.909 173.633 117.467 185.877C111.195 192.049 103.618 196.767 94.4688 201.414C85.5533 205.942 75.041 210.453 62.7537 216.157L99.5062 302.444C114.183 297.905 123 285.306 126.493 270.203C130.054 254.804 128.028 236.964 121.112 222.913L120.844 222.37L121.201 221.881C130.621 209.001 137.732 198.117 142.982 183.726C148.182 169.475 151.576 151.726 153.512 125.134L141.544 122.194Z" fill="#994BFF" stroke="#131313" stroke-width="2"/>
<path d="M134.792 120.536C132.225 135.722 127.792 147.343 121.647 156.291C115.352 165.458 107.298 171.768 97.736 176.236C78.9089 185.033 54.146 186.708 25.3991 189.097L33.047 288.399C49.2772 286.808 62.2243 280.409 70.699 268.579C79.3679 256.478 83.4714 238.538 81.4016 213.849L81.3451 213.175L81.9506 212.871C102.29 202.702 115.251 194.031 124.622 180.984C133.903 168.062 139.732 150.747 145.537 123.175L134.792 120.536Z" fill="#994BFF" stroke="#131313" stroke-width="2"/>
<path d="M92.9191 96.2593C87.9572 90.2552 73.6453 75.3187 57.9168 77.4023C42.1882 79.4859 17.512 109.491 24.0847 120.58C31.3316 132.805 61.4158 101.184 59.6124 99.5537C57.809 97.9233 31.5058 123.692 39.3163 132.911C47.1267 142.13 64.8817 119.262 63.0783 117.631C61.2749 116.001 46.3582 136.001 53.7563 139.492C59.6747 142.286 70.1105 136.924 72.1276 123.504L82.6748 133.27L98.5572 109.908L92.9191 96.2593Z" stroke="#131313" stroke-width="2" stroke-linecap="round"/>
<path d="M94.8344 28.389L105 25.0002L112.767 30.7478L120.422 128.421L116.516 146.585L80.2584 150.778L77.0478 110.109C76.68 105.449 79.5888 101.157 84.0528 99.7713L91.5049 97.4585L88.0144 38.4664C87.7472 33.9515 90.5437 29.8193 94.8344 28.389Z" fill="#994BFF" stroke="#131313" stroke-width="2"/>
<path d="M211.746 152.782C221.239 154.56 230.391 164.558 234.45 160.965C239.523 156.473 216.186 125.85 205.91 117.224" stroke="#131313" stroke-width="14" stroke-linecap="round"/>
<path d="M116.517 146.585L105.934 24.7313L200.141 14.8653L212.416 135.222L116.517 146.585Z" fill="#F4F4F4" stroke="#131313" stroke-width="2"/>
<path d="M185.378 29.4845C190.552 29.1338 195.051 32.9967 195.487 38.164L201.519 109.65C201.959 114.876 198.083 119.469 192.858 119.914L132.159 125.082C126.915 125.528 122.308 121.627 121.884 116.382L116.021 43.8306C115.595 38.553 119.566 33.9458 124.848 33.5877L185.378 29.4845Z" fill="#131313" stroke="#131313"/>
<path d="M85.2594 46.7067C72.989 64.9955 104.588 89.0449 139.32 99.7377C152.582 82.3785 163.228 31.8386 141.789 29.4231C124.638 27.4906 118.227 42.2429 120.478 57.3897C113.873 43.2802 95.0757 32.0757 85.2594 46.7067Z" fill="#994BFF" stroke="#131313" stroke-width="2"/>
<path d="M94.5879 49.1311C89.9679 51.8058 90.8824 58.2264 94.8755 63.3682C98.9855 68.6606 106.778 74.9968 111.695 77.7461M138.589 37.323C134.802 37.0684 129.046 39.5874 128.033 52.0086" stroke="#F4F4F4" stroke-width="3" stroke-linecap="round"/>
<path d="M167.076 29.9832C153.581 38.2531 160.616 69.8468 187.628 95.4204C207.729 85.0147 238.993 45.3543 221.656 31.7461C210.999 23.3819 197.783 37.2687 192.935 52.5224C193.311 36.2994 177.756 23.4381 167.076 29.9832Z" fill="#994BFF" stroke="#131313" stroke-width="2"/>
<path d="M174.49 37.0076C168.485 37.6365 167.567 44.5419 169.652 51.1329C172.379 59.7519 177.131 68.4941 181.723 74.7405M217.237 38.6155C213.394 36.3926 207.764 39.0332 202.086 50.6212" stroke="#F4F4F4" stroke-width="3" stroke-linecap="round"/>
<path d="M97.7432 123.44C95.1888 145.686 90.5792 175.408 101.749 182.488C119.159 193.524 139.106 179.962 151.173 172.296" stroke="#131313" stroke-width="14" stroke-linecap="round"/>
<path d="M155.479 96.9964L166.872 112.831L173.542 94.9741" stroke="#F4F4F4" stroke-width="2"/>
<path d="M145.798 171.569C140.728 162.86 146.574 158.815 150.161 159.034C150.428 154.65 155.405 151.752 157.169 149.059C156.76 142.634 159.058 135.079 164.769 135.921C166.98 132.455 170.061 127.843 179.277 127.604C191.296 127.292 201.484 137.356 206.326 143.251C209.14 143.023 217.087 143.906 218.449 154.39C219.332 161.192 215.85 164.233 211.563 162.372C210.834 163.394 206.895 165.448 203.349 165.872C199.803 166.296 192.914 166.437 186.429 161.242C183.65 167.473 179.907 172.445 175.568 175.382C171.229 178.318 165.052 177.275 162.766 175.402C161.206 181.308 152.006 182.233 145.798 171.569Z" fill="#F4F4F4" stroke="#131313" stroke-width="2"/>
</svg>
