<svg xmlns="http://www.w3.org/2000/svg" viewBox="0 0 220 240" fill="none">
  <!-- surprised / shock -->
  <ellipse cx="110" cy="218" rx="86" ry="10" fill="#000" opacity="0.10"/>
  <path d="M40 132c0-39 31-70 70-70s70 31 70 70v34c0 23-19 42-42 42H82c-23 0-42-19-42-42v-34Z" fill="#994BFF"/>
  <path d="M40 132c0-39 31-70 70-70s70 31 70 70v8H40v-8Z" fill="#7A30E6" opacity="0.30"/>
  <!-- wide-open eyes -->
  <ellipse cx="86" cy="138" rx="12" ry="14" fill="#F4F4F4" stroke="#131313" stroke-width="3"/>
  <ellipse cx="134" cy="138" rx="12" ry="14" fill="#F4F4F4" stroke="#131313" stroke-width="3"/>
  <circle cx="86" cy="140" r="5" fill="#131313"/>
  <circle cx="134" cy="140" r="5" fill="#131313"/>
  <!-- O mouth -->
  <ellipse cx="110" cy="178" rx="9" ry="11" fill="#131313"/>
  <!-- exclamation -->
  <text x="178" y="74" font-family="sans-serif" font-size="38" font-weight="900" fill="#FFB400">!</text>
</svg>
