<svg width="350" height="364" viewBox="0 0 350 364" fill="none" xmlns="http://www.w3.org/2000/svg">
<path d="M185.344 62.0693L104.738 48.054C96.3408 46.5375 92.1423 45.7793 88.9834 47.7627C88.7268 47.9237 88.478 48.0968 88.2378 48.2814C85.2798 50.5536 84.531 54.7537 83.0332 63.1539L63.1335 182.372C53.6127 183.017 56.5336 187.387 37.5106 185.209C18.4875 183.03 7.42693 192.054 17.3181 200.916C3.21644 202.995 6.77577 216.494 15.3089 219.005C7.48365 229.276 14.742 245.123 40.2787 237.438C36.5158 260.845 65.5853 258.181 71.2072 244.528C76.829 230.875 90.2388 232.272 94.1742 223.562C100.493 221.632 102.776 215.496 103.109 209.73C110.549 206.361 113.241 203.03 118.18 197.605L134.142 201.281L99.3166 258.687C68.9441 253.006 50.8594 255.642 32.043 268.651C22.7674 275.063 18.1297 278.269 18.0306 283.699C18.0235 284.089 18.0446 284.589 18.0847 284.978C18.6415 290.379 24.0816 293.497 34.9616 299.732L103.001 338.725C113.171 344.554 118.256 347.468 122.808 345.89C123.172 345.764 123.528 345.619 123.876 345.454C128.23 343.39 129.817 337.748 132.991 326.464L144.539 285.406L140.866 330.346C139.979 341.199 139.535 346.625 142.604 350.022C142.85 350.295 143.111 350.555 143.384 350.801C146.789 353.861 152.215 353.404 163.065 352.49L243.312 345.728C254.964 344.746 260.79 344.256 263.621 339.984C263.829 339.67 264.063 339.268 264.234 338.932C266.556 334.364 264.323 329.51 259.857 319.803C248.233 294.536 232.636 284.146 202.606 278.889L189.677 210.211L234.33 217.921C238.256 227.86 240.686 233.664 245.864 239.402C245.542 246.238 246.485 249.441 251.174 253.479C251.174 253.479 248.75 259.125 250.446 266.085C240.699 289.998 256.942 309.257 273.96 290.088C287.899 315.866 308.014 301.491 305.944 291.936C318.483 295.019 326.664 286.604 321.556 274.439C332.624 270.361 333.271 256.854 324.186 253.362C315.102 249.869 313.634 248.506 307.776 243.922C301.917 239.338 290.67 230.196 290.67 230.196C291.051 223.614 286.087 218.314 275.885 217.076L283.16 172.679L296.883 171.585L297.714 168.393C297.909 167.642 298.007 167.267 298.134 166.9C299.365 163.334 300.573 162.098 304.112 160.786C304.475 160.651 305.847 160.261 308.591 159.48C315.395 157.543 317.855 149.175 313.184 143.864C312.358 142.926 310.288 141.535 306.147 138.755L301.321 135.516L328.343 137.077C330.389 137.195 331.413 137.254 331.945 137.226C340.13 136.793 344.064 126.982 338.445 121.014C338.211 120.765 337.805 120.402 337.131 119.822C336.519 119.296 336.717 118.33 337.466 118.031C345.988 114.631 345.374 102.37 336.556 99.8376C336.319 99.7695 335.804 99.6499 334.776 99.411L325.667 97.2939L328.19 82.6542C328.679 79.8191 328.923 78.4015 329.539 77.1301C329.592 77.0221 329.645 76.9165 329.701 76.8105C330.363 75.562 331.371 74.5182 333.387 72.4305C342.828 62.6549 347.545 57.3718 347.517 53.9011C347.488 50.3209 345.474 47.0526 342.29 45.4165C338.776 43.6116 330.403 46.2398 313.656 51.4963L288.768 59.3082L285.114 33.2648C284.68 30.168 280.968 28.8069 278.635 30.8888C278.142 18.469 277.896 20.2591 275.7 17.7131C273.242 14.8633 269.349 13.707 265.734 14.753C263.339 15.4462 260.741 14.0123 256.624 17.3626C252.253 20.9198 250.067 22.6983 249.1 23.1863C248.97 23.2521 248.984 23.2449 248.852 23.307C247.872 23.7681 246.744 24.0248 244.489 24.5382L239.5 25.674L233.114 26.1702C230.354 26.3847 227.938 24.9115 225.943 22.9919C221.972 19.1712 215.611 19.4569 211.999 23.6182C210.523 25.3188 208.057 25.7923 206.459 24.2055C204.085 21.8477 202.62 20.5421 201.45 20.0088C196.265 17.6456 190.174 20.2783 188.342 25.674C187.772 27.3551 187.888 30.4554 188.121 36.6556L188.949 58.7307L185.344 62.0693Z" fill="#F4F4F4"/>
<path d="M196.143 69.0415L219.705 32.465L247.164 70.6179L276.356 47.165L280.13 76.6362L318.949 76.1364L316.393 88.787L285.464 87.0001L326.271 123.182L277.603 120.37L289.154 141.606L267.488 145.382L289.117 158.059L258.188 156.272" stroke="#994BFF" stroke-width="2"/>
<path d="M251.056 153.749L259.831 162.013L242.205 162.819L245.935 170.335L221.34 171.651L237.042 84.0455L262.217 88.6937L251.056 153.749Z" fill="#994BFF"/>
<path d="M69.5556 195.07C74.3633 190.824 81.8513 190.12 86.8463 195.126C95.4001 205.054 89.0842 214.594 82.7785 215.645C79.9228 223.499 74.5203 225.545 68.0788 228.947C63.5143 231.357 60.8665 236.549 58.6458 242.553C56.9378 247.171 49.8265 246.676 49.1515 240.589C48.5199 234.892 51.2668 228.918 58.7475 224.162C48.8729 228.78 34.8523 230.329 30.0644 230.052C21.925 229.582 22.3324 222.53 27.2018 221.397C29.4714 220.868 39.8132 219.295 45.7217 216.806C40.747 216.991 27.6486 216.988 24.6278 216.059C20.3799 214.752 20.2745 208.26 26.0471 208.122C27.9647 208.076 40.4652 208.011 45.8132 206.906C41.4951 206.813 30.1796 204.776 26.7975 203.449C21.6304 201.421 23.9077 195.263 29.1472 196.037C32.0327 196.464 45.8506 197.946 50.214 197.254C54.0191 196.652 61.4162 194.6 69.5556 195.07Z" fill="#F4F4F4" stroke="#131313" stroke-width="2"/>
<path fill-rule="evenodd" clip-rule="evenodd" d="M119.711 179.809C108.828 195.483 90.5358 204.985 82.6404 207.887C79.5582 209.02 76.1446 207.433 75.0161 204.342C73.8876 201.251 75.4715 197.826 78.5537 196.693C85.2164 194.244 101 185.899 109.958 172.998L119.711 179.809Z" fill="#131313"/>
<path d="M175.353 191.052L191.714 293.08L191.856 293.962L192.748 293.92C204.979 293.34 217.004 295.281 227.496 301.515C237.716 307.588 246.574 317.79 252.747 333.928L152.536 341.647L166.296 190.138L175.353 191.052Z" fill="#994BFF" stroke="#131313" stroke-width="2"/>
<path d="M162.589 191.151L116.927 336.338L30.5835 287.608C38.7694 280.675 50.1245 273.599 62.4124 270.16C75.2288 266.572 88.9818 266.953 101.274 275.466L102.151 276.074L102.7 275.16L154.789 188.444L162.589 191.151Z" fill="#994BFF" stroke="#131313" stroke-width="2"/>
<rect x="95.6439" y="58.9932" width="143.258" height="122.672" transform="rotate(10.0277 95.6439 58.9932)" fill="#F4F4F4" stroke="#131313" stroke-width="2"/>
<rect x="105.288" y="72.0316" width="119.367" height="99.5923" rx="10" transform="rotate(10.0277 105.288 72.0316)" fill="#994BFF"/>
<path d="M236.57 83.9178L251.854 86.6204C257.284 87.5805 260.912 92.755 259.963 98.1871L250.399 152.983L268.362 170.108C270.785 172.419 271.892 175.79 271.308 179.087L265.214 213.553L215.353 204.736" stroke="#131313" stroke-width="2"/>
<rect x="176.488" y="95.6979" width="33.095" height="77.8467" rx="5" transform="rotate(10.1137 176.488 95.6979)" stroke="#131313" stroke-width="2"/>
<rect x="114.443" y="84.8472" width="33.095" height="77.8467" rx="5" transform="rotate(10.1137 114.443 84.8472)" stroke="#131313" stroke-width="2"/>
<path d="M184.121 109.196L196.601 111.642L179.935 134.839L191.965 137.26L175.333 159.884L187.33 162.878" stroke="#F4F4F4" stroke-width="2"/>
<path d="M122.469 98.8249L134.95 101.24L118.31 124L130.342 126.389L113.734 148.585L125.734 151.538" stroke="#F4F4F4" stroke-width="2"/>
<path fill-rule="evenodd" clip-rule="evenodd" d="M230.935 183.403C233.039 180.868 236.8 180.519 239.335 182.624C250.963 192.278 254.997 202.757 258.488 211.825C258.632 212.199 258.775 212.571 258.918 212.94C262.442 222.059 265.721 229.775 275.753 236.826L268.893 246.587C255.828 237.405 251.496 226.832 247.789 217.241C247.69 216.983 247.59 216.726 247.492 216.47C243.991 207.399 240.923 199.449 231.714 191.803C229.179 189.699 228.83 185.938 230.935 183.403Z" fill="#131313"/>
<path d="M266.284 233.711C255.847 241.055 256.703 249.617 262.774 250.963C260.042 256.453 261.451 262.856 262.251 266.05C263.051 269.245 259.511 277.655 258.549 279.037C255.407 283.555 256.512 288.353 261.292 287.724C266.974 286.976 270.816 279.848 272.89 269.977C278.277 281.674 285.979 291.36 290.295 293.421C297.186 296.712 299.56 290.661 297.745 288.243C295.132 284.763 289.087 275.857 286.188 269.523C291.067 274.571 300.037 282.252 305.667 283.097C311.906 284.032 315.102 279.098 311.324 276.382C307.705 273.78 299.585 267.573 295.21 262.086C302.541 265.878 310.847 269.262 315.627 268.633C318.908 268.201 321.537 265.244 317.887 263.112C314.237 260.981 304.137 256.06 298.756 251.452C293.374 246.843 287.992 242.234 280.661 238.442C283.865 232.983 276.72 226.368 266.284 233.711Z" fill="#F4F4F4" stroke="#131313" stroke-width="2"/>
<path d="M252.762 101.72L241.067 94.953M251.654 107.986L239.959 101.219M250.547 114.253L238.851 107.485M249.439 120.519L237.743 113.751" stroke="#131313" stroke-width="2"/>
<path d="M253.26 178.222L266.395 176.874M252.387 183.132L265.521 181.785" stroke="#131313" stroke-width="2"/>
<path d="M145.019 157.488L143.794 164.099C143.15 167.575 145.456 170.911 148.935 171.538C152.48 172.177 155.851 169.754 156.376 166.19L157.356 159.539C157.815 156.418 155.878 153.443 152.838 152.601C149.303 151.621 145.687 153.881 145.019 157.488Z" fill="#131313"/>
</svg>
