<svg width="326" height="300" viewBox="0 0 326 300" fill="none" xmlns="http://www.w3.org/2000/svg">
<path d="M187.33 38.342C187.33 30.954 185.949 24.1939 184.21 18.574C182.941 14.4686 182.306 12.4158 179.812 9.73742C178.99 8.85416 177.117 7.36622 176.07 6.76519C172.897 4.9426 170.472 4.76851 165.622 4.42031C160.476 4.05087 155.162 3.86568 151.593 4.05355C142.417 4.53649 130.344 7.91709 120.202 7.91709C110.06 7.91709 97.504 4.05355 81.0842 4.05355C72.6721 4.05355 61.3683 7.22244 49.5067 10.1357C42.0805 11.9596 38.3674 12.8716 36.0145 14.4521C34.022 15.7906 33.2744 16.5194 31.8858 18.4772C30.2459 20.7892 29.0014 25.3523 26.5125 34.4785C23.6149 45.1031 26.5125 58.1423 25.0637 63.4546C23.9046 67.7045 24.0978 72.9524 23.6149 79.3915C22.8204 79.4758 22.4231 79.5179 22.266 79.5378C14.8194 80.4771 9.24632 86.1022 8.37623 93.5572C8.35787 93.7145 8.30171 94.2952 8.1894 95.4568C6.02131 117.88 9.663 132.139 10.207 154.649C10.3928 162.339 16.9267 168.534 24.5807 167.769C25.5955 175.603 36.6543 186.603 44.3813 192.881C53.6612 200.421 53.557 208.335 60.8011 217.511C60.1445 223.698 63.6987 230.067 68.528 233.448C70.0532 243.362 78.7641 244.493 83.9818 251.317C90.26 259.526 86.8794 260.975 97.504 276.429C106.004 288.792 122.617 289.468 130.344 282.224C146.281 290.434 161.252 278.844 155.456 265.322C162.218 254.697 160.769 246.487 155.939 238.277C157.871 235.863 158.837 233.448 158.837 230.067C166.172 239.608 164.632 253.731 180.086 266.287C189.959 274.309 201.605 280.557 213.767 284.905C220.834 287.431 224.368 288.695 228.84 287.723C230.559 287.35 232.819 286.396 234.284 285.424C238.099 282.896 239.947 278.848 243.643 270.752L244.799 268.219C246.034 268.571 247.195 268.899 248.303 269.206C255.041 271.071 258.41 272.003 262.597 270.894C264.204 270.469 266.325 269.483 267.686 268.529C271.234 266.043 272.953 262.301 276.391 254.816C290.719 223.627 301.242 199.867 313.694 169.241C318.507 157.402 320.914 151.482 318.804 145.691C318.028 143.558 316.144 140.772 314.455 139.256C309.866 135.14 304.622 135.163 294.134 135.207C279.022 135.271 264.372 139.438 246.731 149.9C232.682 152.396 225.353 155.174 213.408 162.939L208.579 161.973C205.199 156.178 197.69 154.505 190.711 157.627C191.354 152.154 192.546 138.889 192.159 129.617C191.676 118.026 183.466 98.226 182.984 86.1526C182.501 74.0792 187.33 57.1765 187.33 38.342Z" fill="#F4F4F4"/>
<path fill-rule="evenodd" clip-rule="evenodd" d="M93.5103 135.071C95.3893 132.48 99.0129 131.903 101.604 133.782C110.881 140.51 113.773 147.061 118.052 153.357C122.563 159.997 125.654 163.66 130.53 164.986C146.568 169.348 145.437 161.752 165.754 166.659C172.134 168.2 182.517 173.699 192.991 171.222L192.694 187.827C179.774 190.928 169.654 185.117 161.428 181.914C147.003 176.297 141.845 180.075 127.488 176.171C118.008 173.593 112.806 166.261 108.465 159.872C103.891 153.14 102.869 147.864 95.5499 142.557C92.9589 140.678 91.6314 137.662 93.5103 135.071Z" fill="#131313"/>
<path d="M195.866 167.137C188.88 168.791 183.761 176.969 181.468 183.031L188.242 192.043L215.442 200.894C218.321 195.383 223.333 183.209 220.347 178.601C217.36 173.994 207.298 172.131 202.64 171.776C202.515 169.981 200.754 165.98 195.866 167.137Z" fill="#F4F4F4" stroke="#131313" stroke-width="2"/>
<path d="M228.151 196.089C236.385 157.607 275.706 142.491 309.907 148.173C296.841 182.723 275.373 225.909 260.546 260.717C254.704 259.559 240.522 255.215 224.978 245.744C214.885 239.595 207.79 231.27 200.325 223.176C192.889 215.113 185.11 207.316 173.747 202.587C162.391 197.861 148.944 197.784 136.233 197.446C123.4 197.104 111.357 196.496 102.289 191.005C93.1437 185.466 87.0683 177.758 82.1749 170.218C79.7157 166.428 77.5959 162.749 75.4916 159.35C73.5434 156.203 71.6238 153.322 69.5452 151.012C69.8767 150.254 70.3467 149.492 71.1422 149.044C72.0809 148.516 73.7924 148.263 76.9759 149.732C78.8822 150.612 80.4061 151.947 81.9011 153.639C83.4275 155.367 84.8191 157.336 86.603 159.574C90.1295 163.998 94.813 168.958 103.564 172.91C106.611 174.286 111.074 174.854 116.233 175.046C121.424 175.24 127.468 175.055 133.75 174.842C146.378 174.415 159.942 173.883 170.011 175.959C178.063 177.619 188.642 182.037 199.09 186.474C209.459 190.878 219.726 195.314 226.964 196.858L227.942 197.066L228.151 196.089Z" fill="#994BFF" stroke="#131313" stroke-width="2"/>
<path d="M195.782 211.931C204.048 173.3 237.636 155.782 271.579 161.414C260.808 195.87 242.906 241.816 228.173 276.559C222.33 275.4 208.151 271.056 192.608 261.586C182.685 255.54 177.893 244.283 172.715 232.987C167.606 221.843 162.108 210.654 150.548 205.843C139.197 201.119 129.392 201.275 120.257 201.17C111.114 201.064 102.648 200.698 93.5636 195.196C84.4809 189.696 80.0951 182.243 76.887 174.926C76.0829 173.092 75.3551 171.272 74.6424 169.487C73.9318 167.707 73.2343 165.958 72.5011 164.294C71.1318 161.187 69.6061 158.304 67.5385 155.954C67.8701 155.195 68.3399 154.43 69.137 153.982C70.0757 153.454 71.7872 153.201 74.9708 154.67C76.8153 155.521 78.4612 157.19 80.071 159.46C81.6777 161.726 83.1736 164.48 84.7727 167.406C87.9243 173.173 91.4729 179.628 96.9133 183.282C99.7066 185.158 103.109 186.029 106.875 186.385C110.638 186.741 114.853 186.589 119.31 186.355C128.274 185.886 138.302 185.086 148.361 187.16C164.475 190.482 181.893 200.969 194.118 212.451L195.41 213.664L195.782 211.931Z" fill="#F4F4F4" stroke="#131313" stroke-width="2"/>
<path d="M45.8703 22.5338L62.1511 19.1547L80.5562 85.3372L63.7633 157.816C48.2443 161.008 37.278 156.347 21.6829 157.816C21.9733 135.201 16.6865 120.042 18.8764 97.356C19.2647 93.334 22.2836 90.1233 26.3193 89.9224C29.0131 89.7884 31.3819 89.6258 34.1049 87.9546C32.6105 75.1552 38.0491 61.1819 36.3948 49.8225C35.2443 41.9224 36.4843 35.7761 37.7646 30.469C38.7199 26.5094 41.8822 23.3615 45.8703 22.5338Z" fill="#994BFF" stroke="#131313" stroke-width="2"/>
<path d="M88.8165 15.3125C82.6727 14.6304 67.8397 17.5187 61.1912 19.0481C60.6051 24.328 59.7636 37.1595 61.087 46.2471C62.7413 57.6065 59.2274 80.5037 57.7846 93.4989C56.0261 109.338 63.3344 131.044 61.8434 157.603C71.7633 160.162 83.7627 158.87 94.2157 159.253C107.282 159.732 125.682 164.69 142.747 159.782C159.813 154.874 170.799 158.038 180.559 156.206C181.003 152.206 181.827 142.158 181.57 133.966C181.249 123.727 173.994 101.542 172.98 88.7956C171.965 76.0495 176.87 58.1297 176.868 36.2639C176.868 28.9753 174.129 20.087 172.333 15.8384C167.214 15.27 155.31 14.24 148.654 14.6672C140.335 15.2013 130.735 18.5086 120.976 18.8828C111.216 19.257 96.4963 16.1651 88.8165 15.3125Z" fill="#F4F4F4" stroke="#131313" stroke-width="2"/>
<path d="M99.2172 26.6711C95.8783 25.6091 86.4664 26.0861 79.1233 27.2566C74.6972 27.9621 71.9984 32.0539 72.3453 36.5225C72.6502 40.4496 72.969 44.6353 73.14 47.0993C73.5138 52.4857 70.796 76.965 70.3164 81.2849C69.8368 85.6048 70.9578 97.3909 72.3449 102.404C72.9794 104.697 73.1795 111.286 73.0984 118.006C73.017 124.747 79.3467 131.393 86.0848 131.176C87.2551 131.138 88.4288 131.094 89.5734 131.041C98.853 130.614 114.479 134.292 119.813 134.398C125.146 134.505 142.212 133.97 146.691 133.009C148.891 132.538 154.309 132.631 159.466 132.88C164.395 133.119 168.863 129.851 168.884 124.917C168.892 123.022 168.785 121.24 168.556 119.888C167.911 116.079 164.074 94.6094 163.913 87.3031C163.775 81.0264 165.031 59.7307 166.683 44.8511C167.018 41.8317 166.944 38.6688 166.722 35.7881C166.343 30.8592 162.074 27.0363 157.14 26.741C153.925 26.5486 150.732 26.3802 149.295 26.4C145.402 26.4537 131.056 28.7482 125.136 29.5487C119.217 30.3493 103.91 28.164 99.2172 26.6711Z" fill="#994BFF"/>
<path d="M107.121 62.8707C107.809 50.7765 102.533 34.4294 91.5161 38.2575C80.499 42.0857 88.3001 55.4261 88.7398 63.264C89.1795 71.102 82.5561 77.669 82.5152 89.835C82.4744 102.001 86.2682 120.921 96.7262 121.109C107.184 121.296 100.803 102.089 100.197 89.8507C99.5904 77.6129 106.434 74.9649 107.121 62.8707Z" fill="#F4F4F4" stroke="#131313" stroke-width="2"/>
<path d="M155.848 62.3688C156.074 51.6981 153.211 38.6108 143.103 38.9463C132.996 39.2819 136.375 56.3592 138.491 63.2153C140.607 70.0714 136.142 84.3742 135.24 92.4944C134.334 100.654 135.102 119.656 144.046 121.159C152.99 122.661 153.692 103.385 152.441 93.0593C151.189 82.7339 155.622 73.0396 155.848 62.3688Z" fill="#F4F4F4" stroke="#131313" stroke-width="2"/>
<path d="M111.701 84.9077C114.954 86.2407 115.435 89.6954 114.688 93.0139C113.729 97.2804 109.783 102.187 111.276 106.24C113.454 112.149 117.196 109.813 118.37 112.373C120.225 116.42 114.617 120.953 119.651 122.719C125.731 124.852 129.249 110.665 126.582 104.052C125.146 100.492 121.782 99.1463 122.848 93.9198C123.396 91.2331 124.258 89.9922 124.88 88.7516" stroke="#131313" stroke-width="2"/>
<path d="M108.454 153.545L107.493 140.319L121.093 144.745L135.225 139.997L136.293 152.263L120.72 148.105L108.454 153.545Z" fill="#131313"/>
<path fill-rule="evenodd" clip-rule="evenodd" d="M36.2832 115.573C39.3729 114.738 42.5547 116.565 43.39 119.655C46.3806 130.717 46.1146 140.724 45.4872 148.311C44.8257 156.311 44.9286 161.103 47.8887 165.198C57.626 178.668 61.5184 172.048 74.2417 188.63C78.2374 193.837 82.8595 204.639 92.5648 209.292L81.9011 222.025C69.9011 216.32 65.6788 205.441 61.2916 197.781C53.5979 184.347 47.2117 184.045 38.4956 171.988C32.7399 164.026 33.2996 155.054 33.9362 147.356C34.6069 139.245 35.5264 131.405 33.1671 122.678C32.3318 119.588 33.1935 116.408 36.2832 115.573Z" fill="#131313"/>
<path d="M80.5098 207.405C91.269 202.1 97.4928 207.116 98.2119 212.268C100.514 211.675 104.995 208.967 112.497 210.817C119.67 212.586 130.912 218.841 134.785 221.288C138.658 223.736 148.464 225.657 148.164 229.562C147.714 235.42 140.762 234.7 138.105 234.045C141.393 236.846 145.311 241.128 147.983 246.429C151.189 252.791 145.689 261.781 143.357 265.185C144.654 267.992 146.298 269.392 145.72 271.737C144.902 275.052 140.813 275.5 135.064 272.59C129.822 269.937 121.313 257.758 118.603 252.613C116.435 248.497 112.129 242.561 110.022 243.035C113.201 248.297 117.198 260.324 118.519 263.038C120.169 266.429 126.399 273.437 120.901 275.563C108.804 280.24 100.951 263.679 97.7594 254.436C94.5677 245.193 87.2906 240.413 81.5357 235.512C76.9319 231.591 77.3739 228.185 77.7594 226.622C70.5957 223.852 66.2198 214.45 80.5098 207.405Z" fill="#F4F4F4" stroke="#131313" stroke-width="2"/>
</svg>
