<svg xmlns="http://www.w3.org/2000/svg" viewBox="0 0 220 240" fill="none">
  <!-- waiting / steady -->
  <ellipse cx="110" cy="218" rx="86" ry="10" fill="#000" opacity="0.10"/>
  <path d="M40 132c0-39 31-70 70-70s70 31 70 70v34c0 23-19 42-42 42H82c-23 0-42-19-42-42v-34Z" fill="#994BFF"/>
  <path d="M40 132c0-39 31-70 70-70s70 31 70 70v8H40v-8Z" fill="#7A30E6" opacity="0.30"/>
  <!-- steady eyes -->
  <circle cx="86" cy="140" r="7" fill="#131313"/>
  <circle cx="134" cy="140" r="7" fill="#131313"/>
  <circle cx="88" cy="137" r="2.5" fill="#F4F4F4"/>
  <circle cx="136" cy="137" r="2.5" fill="#F4F4F4"/>
  <!-- straight neutral mouth -->
  <path d="M94 172h32" stroke="#131313" stroke-width="5" stroke-linecap="round"/>
  <!-- waiting dots -->
  <circle cx="168" cy="100" r="3.5" fill="#131313"/>
  <circle cx="180" cy="100" r="3.5" fill="#131313" opacity="0.6"/>
  <circle cx="192" cy="100" r="3.5" fill="#131313" opacity="0.3"/>
</svg>
