<svg xmlns="http://www.w3.org/2000/svg" viewBox="0 0 220 240" fill="none">
  <!-- hyped — energetic eyes + open smile -->
  <ellipse cx="110" cy="218" rx="86" ry="10" fill="#000" opacity="0.10"/>
  <path d="M40 130c0-39 31-72 70-72s70 33 70 72v36c0 23-19 42-42 42H82c-23 0-42-19-42-42v-36Z" fill="#994BFF"/>
  <path d="M40 130c0-39 31-72 70-72s70 33 70 72v8H40v-8Z" fill="#7A30E6" opacity="0.30"/>
  <!-- big star-shaped eyes -->
  <g transform="translate(86 140)">
    <path d="M0 -12l3 7 8 1-6 5 2 8-7-4-7 4 2-8-6-5 8-1z" fill="#FFB400" stroke="#131313" stroke-width="2"/>
  </g>
  <g transform="translate(134 140)">
    <path d="M0 -12l3 7 8 1-6 5 2 8-7-4-7 4 2-8-6-5 8-1z" fill="#FFB400" stroke="#131313" stroke-width="2"/>
  </g>
  <!-- open smile -->
  <path d="M82 168q28 28 56 0" stroke="#131313" stroke-width="5" stroke-linecap="round" fill="#131313"/>
  <path d="M86 172q24 16 48 0" fill="#FF4F8B"/>
  <!-- excited arms -->
  <path d="M40 142l-18-14M180 142l18-14" stroke="#994BFF" stroke-width="10" stroke-linecap="round"/>
</svg>
