<svg width="217" height="313" viewBox="0 0 217 313" fill="none" xmlns="http://www.w3.org/2000/svg" xmlns:xlink="http://www.w3.org/1999/xlink">
<path fill-rule="evenodd" clip-rule="evenodd" d="M44.4493 5.66632C62.8746 4.19229 113.576 1.94364 142.276 0.729608C150.872 0.36601 155.17 0.184211 158.441 2.17627C159.5 2.82112 160.462 3.62243 161.289 4.547C163.841 7.40316 164.443 11.6803 165.648 20.2345L183.293 145.467C183.885 149.668 181.129 153.612 176.981 154.501C178.032 155.904 181.188 158.814 185.395 159.234C186.002 159.295 186.783 159.342 187.695 159.396C194.691 159.814 209.365 160.69 211.691 171.856C213.981 182.847 207.308 187.108 203.802 188.16C218.528 203.937 214.847 217.611 201.699 218.663C199.595 224.448 193.903 227.547 188.025 226.026C180.662 236.544 166.988 233.915 160.677 226.026C158.591 223.419 157.022 220.424 155.586 217.681C154.125 214.893 152.802 212.365 151.211 210.774C148.686 208.25 142.796 203.762 140.166 201.834L142.796 240.226C178.337 250.487 196.327 262.224 208.847 283.182C214.766 293.09 217.725 298.044 216.023 303.447C215.54 304.979 214.482 306.845 213.414 308.044C209.649 312.276 203.042 312.276 189.829 312.276H64.6023C50.5255 312.276 43.4871 312.276 39.7597 308.383C38.5838 307.155 37.6634 305.693 37.0643 304.102C35.1652 299.058 38.221 292.684 44.3327 279.937C50.8608 266.321 56.3675 253.903 62.3305 236.544C58.1231 227.604 54.7572 216.139 53.9158 212.352C53.0743 208.565 50.059 201.658 48.6566 198.678C44.4493 194.471 42.6875 188.459 45.5011 182.375L35.5087 163.442L27.7982 164.118C18.5075 164.933 13.8621 165.341 10.363 163.26C9.23647 162.59 8.21082 161.739 7.34433 160.755C4.65294 157.701 4.19743 153.08 3.28641 143.838C2.49947 135.854 1.60963 126.614 0.798066 117.687C-1.3056 94.5465 8.16091 88.2354 15.5238 86.1318C15.5238 86.1318 13.4201 58.784 11.8423 38.7992C10.2646 18.8143 18.1534 7.76999 44.4493 5.66632ZM70.2192 159.234L77.0562 158.708L78.108 166.071H74.4266L70.2192 159.234Z" fill="#F4F4F4" stroke="#131313"/>
<path d="M94.4613 148.431C102.805 179.224 104.757 202.707 101.775 225.697C98.8032 248.605 90.9386 270.964 79.747 299.489L204.027 299.489C198.406 284.968 186.479 273.395 172.894 264.898C158.9 256.145 143.249 250.724 131.207 248.73L130.311 248.582L130.372 247.676C131.736 227.707 131.176 212.306 127.232 197.144C123.319 182.103 116.056 167.229 103.928 148.326L94.4613 148.431Z" fill="#994BFF"/>
<path d="M94.4613 148.431C102.805 179.224 104.757 202.707 101.775 225.697C98.8032 248.605 90.9386 270.964 79.747 299.489L204.027 299.489C198.406 284.968 186.479 273.395 172.894 264.898C158.9 256.145 143.249 250.724 131.207 248.73L130.311 248.582L130.372 247.676C131.736 227.707 131.176 212.306 127.232 197.144C123.319 182.103 116.056 167.229 103.928 148.326L94.4613 148.431Z" stroke="#131313" stroke-width="2"/>
<path d="M86.3577 148.511C93.6959 198.096 72.1818 244.44 47.427 300.445L162.616 300.444C151.696 270.302 119.588 261.305 95.7398 256.737L94.5761 256.514L94.9914 255.405C102.878 234.304 106.742 217.916 106.829 201.568C106.916 185.394 103.306 169.182 96.1217 148.402L86.3577 148.511Z" fill="#994BFF"/>
<path d="M86.3577 148.511C93.6959 198.096 72.1818 244.44 47.427 300.445L162.616 300.444C151.696 270.302 119.588 261.305 95.7398 256.737L94.5761 256.514L94.9914 255.405C102.878 234.304 106.742 217.916 106.829 201.568C106.916 185.394 103.306 169.182 96.1217 148.402L86.3577 148.511Z" stroke="#131313" stroke-width="2"/>
<path d="M32.5421 18.4445L44.6171 15.3666C45.0806 15.2484 45.5628 15.475 45.7677 15.9071L67.3267 61.3684L64.4686 150.444L14.929 154.255L10.501 110.344C9.77229 103.118 14.6912 96.534 21.8279 95.1838L26.8376 94.2361L22.043 33.1054C21.5104 26.3151 25.942 20.1269 32.5421 18.4445Z" fill="#994BFF"/>
<path d="M32.5421 18.4445L44.6171 15.3666C45.0806 15.2484 45.5628 15.475 45.7677 15.9071L67.3267 61.3684L64.4686 150.444L14.929 154.255L10.501 110.344C9.77229 103.118 14.6912 96.534 21.8279 95.1838L26.8376 94.2361L22.043 33.1054C21.5104 26.3151 25.942 20.1269 32.5421 18.4445Z" stroke="#131313" stroke-width="2"/>
<path d="M147.938 170.018C141.244 161.217 126.166 139.75 119.412 124.29" stroke="#131313" stroke-width="12"/>
<path d="M141.313 178.355C135.95 174.141 138.359 167.788 142.767 164.012C147.687 159.796 155.41 158.206 158.478 163.833C160.162 162.928 165.309 163.108 170.041 164.625C175.955 166.522 180.148 169.478 185.002 169.654C189.857 169.83 201.658 169.619 200.317 175.256C198.994 180.817 193.345 181.922 180.282 181.262C184.85 186.755 196.613 194.94 200.851 201.824C204.21 207.281 198.778 212.593 190.635 207.717C195.226 215.175 187.053 219.905 182.406 215.552C179.645 212.966 174.091 204.746 170.708 199.741L170.554 199.512L169.521 200.147C169.483 200.173 169.446 200.198 169.408 200.224C169.925 201.491 171.165 204.359 172.011 205.734C173.07 207.455 180.001 217.428 179.339 220.208C178.677 222.989 175.346 224.644 170.689 221.578C166.033 218.511 161.154 206.089 159.632 204.258C158.109 202.426 151.324 196.465 147.957 193.646C143.874 190.226 140.916 184.136 141.313 178.355Z" fill="#F4F4F4"/>
<path d="M141.313 178.355C135.95 174.141 138.359 167.788 142.767 164.012C147.687 159.796 155.41 158.206 158.478 163.833M141.313 178.355C140.916 184.136 143.874 190.226 147.957 193.646C151.324 196.465 158.109 202.426 159.632 204.258C161.154 206.089 166.033 218.511 170.689 221.578C175.346 224.644 178.677 222.989 179.339 220.208C180.001 217.428 173.07 207.455 172.011 205.734C171.163 204.357 169.921 201.483 169.406 200.218L170.554 199.512C173.919 204.492 179.603 212.927 182.406 215.552C187.053 219.905 195.226 215.175 190.635 207.717M141.313 178.355C141.974 175.574 142.768 174.295 144.6 172.772M148.262 169.726C151.814 167.144 155.83 164.672 158.478 163.833C160.162 162.928 165.309 163.108 170.041 164.625C175.955 166.522 180.148 169.478 185.002 169.654C189.857 169.83 201.658 169.619 200.317 175.256C198.994 180.817 193.345 181.922 180.282 181.262M180.282 181.262C184.85 186.755 196.613 194.94 200.851 201.824C204.21 207.281 198.778 212.593 190.635 207.717M180.282 181.262C178.574 180.997 177.607 180.833 175.648 180.159C174.773 181.093 167.175 186.957 156.693 179.566M190.635 207.717C187.523 205.018 180.457 198.636 177.084 194.7M164.817 203.043C169.87 200.328 176.948 194.864 179.136 192.251" stroke="#131313" stroke-width="2"/>
<path d="M171.646 144.728L63.9926 150.444L45.8916 15.1631L153.545 10.3997L171.646 144.728Z" fill="#F4F4F4" stroke="#131313" stroke-width="2"/>
<path d="M111.539 140.15L110.811 130.126L121.118 133.48L131.828 129.882L132.638 139.178L120.835 136.026L111.539 140.15Z" fill="#131313" stroke="#131313"/>
<path d="M66.4821 22.8154L136.635 19.683C141.235 19.4778 145.248 22.7781 145.935 27.3312L158.991 113.854C159.79 119.148 155.818 123.965 150.469 124.189L79.6522 127.155C75.0361 127.348 71.0235 124.015 70.3671 119.442L57.9749 33.0843C57.2197 27.8201 61.1692 23.0526 66.4821 22.8154Z" fill="#994BFF" stroke="#131313" stroke-width="2"/>
<path d="M141.087 31.3354C128.991 35.5428 122.68 43.4316 122.68 64.9942C136.879 58.6832 141.087 43.9575 141.087 31.3354Z" fill="#F4F4F4"/>
<path d="M64.8279 37.1205C72.7167 37.1205 91.6497 46.587 94.2793 66.046C79.0277 64.9941 64.8279 49.7425 64.8279 37.1205Z" fill="#F4F4F4"/>
<path d="M138.557 26.3119C135.972 27.3161 130.287 30.2565 127.787 33.0124M136.793 22.9007C134.208 23.9049 131.458 25.0611 128.998 26.8652M77.2397 33.2798C80.2074 34.5165 85.1711 37.426 87.9071 40.4011M83.0903 30.1875C84.8088 30.8951 88.5194 32.6079 89.6138 33.7979M106.621 71.6972C107.57 83.1792 112.405 104.359 120.971 104.718C124.025 104.846 126.736 100.309 125.197 94.8827C122.419 85.0881 111.856 71.9164 112.394 59.0664M103.531 54.4045C105.19 52.7259 110.575 50.1226 115.033 52.979M103.79 48.2175C106.269 45.9375 110.481 45.5417 113.844 47.2081M105.476 42.0902C107.44 40.7421 109.82 40.8418 112.179 41.4173M110.282 109.515C106.791 113.182 107.087 117.486 110.875 118.121C113.905 118.629 116.395 115.333 116.785 113.601C118.113 116.04 122.055 119.829 125.212 117.291C128.37 114.753 123.594 110.39 120.792 109.001M114.563 121.136C116.466 121.216 118.33 122.247 120.274 121.375M121.87 71.8589C127.733 76.0774 140.753 90.0036 145.936 111.961M102.833 71.0619C98.4893 76.1244 89.7409 92.254 89.4981 116.273M136.761 80.5873C139.034 83.2252 144.271 90.2462 147.03 97.2271M90.873 83.4337C86.683 92.412 85.3964 100.368 85.2768 103.223M132.58 66.5862C140.735 63.1136 143.581 58.1473 143.984 56.0982M136.743 69.6211C143.36 66.4654 145.093 63.7728 145.133 62.821M85.6999 70.3446C77.6565 71.152 70.8348 64.7957 68.4294 61.5166M84.5687 74.588C79.7496 75.8166 74.5742 74.1696 72.7502 72.1862M122.625 65.2159C121.339 50.3825 126.26 35.3322 140.737 31.1708C141.963 47.4319 134.722 60.9548 122.625 65.2159ZM133.172 48.7742C132.513 50.2084 131.203 51.0146 130.247 50.5749C129.291 50.1352 129.05 48.6161 129.71 47.1819C130.37 45.7478 131.679 44.9416 132.635 45.3813C133.591 45.8209 133.832 47.34 133.172 48.7742ZM94.4658 65.944C92.1483 52.9744 79.2084 35.6244 64.2104 37.0251C65.4964 51.8585 81.6475 66.3847 94.4658 65.944ZM78.4306 52.3887C79.5675 53.4838 81.0809 53.7573 81.811 52.9994C82.541 52.2415 82.2112 50.7393 81.0743 49.6442C79.9374 48.549 78.4239 48.2756 77.6939 49.0334C76.9638 49.7913 77.2937 51.2935 78.4306 52.3887Z" stroke="#131313" stroke-width="2"/>
<path d="M63.9927 180.93C58.1178 171.562 45.0343 148.825 39.6992 132.82" stroke="#131313" stroke-width="12"/>
<path d="M52.0841 130.914L30.6487 143.299C26.9967 132.978 18.2638 113.083 28.7433 108.526C39.2228 103.97 48.5909 121.546 52.0841 130.914Z" fill="#F4F4F4" stroke="#131313" stroke-width="2"/>
<path d="M61.0415 177.362C51.8986 183.573 54.3639 192.118 59.1792 192.759C58.4759 196.623 62.1497 201.731 64.6943 211.494C67.8751 223.698 75.9215 244.655 83.8476 241.753C89.2523 239.774 84.8521 227.844 82.1043 222.295C81.0051 220.075 79.8009 216.239 79.14 213.418C84.0365 222.647 90.3785 232.777 94.5021 236.764C98.8912 241.008 106.602 239.318 106.014 230.286C116.812 234.835 118.725 227.55 115.409 220.606C113.405 216.408 102.412 204.267 97.7319 198.366C114.999 199.629 119.06 196.023 118.214 190.35C117.344 184.522 107.953 186.721 101.237 186.204C94.5202 185.686 91.927 182.513 87.4634 179.939C83.8925 177.881 79.2281 178.089 76.8823 178.719C74.548 172.188 67.2587 173.139 61.0415 177.362Z" fill="#F4F4F4"/>
<path d="M59.1792 192.759C54.3639 192.118 51.8986 183.573 61.0415 177.362C67.2587 173.139 74.548 172.188 76.8823 178.719M63.9749 185.764C59.9404 188.318 59.4136 191.471 59.1792 192.759C58.4759 196.623 62.1497 201.731 64.6943 211.494C67.8751 223.698 75.9215 244.655 83.8476 241.753C89.2523 239.774 84.8521 227.844 82.1043 222.295C81.0051 220.075 79.8009 216.239 79.14 213.418C84.0365 222.647 90.3785 232.777 94.5021 236.764C98.8912 241.008 106.602 239.318 106.014 230.286M76.8823 178.719C79.2281 178.089 83.8925 177.881 87.4634 179.939C91.927 182.513 94.5202 185.686 101.237 186.204C107.953 186.721 117.344 184.522 118.214 190.35C119.06 196.023 114.999 199.629 97.7319 198.366C102.412 204.267 113.405 216.408 115.409 220.606C118.725 227.55 116.812 234.835 106.014 230.286M76.8823 178.719C76.8823 178.719 72.6971 180.423 69.9378 182.034M106.014 230.286C101.458 226.286 95.1354 217.151 90.2697 208.398M71.0821 199.622C71.8911 202.274 73.7179 207.852 74.5527 208.943M76.1562 196.905C78.7594 201.7 80.8015 204.718 81.4972 205.627M82.2119 194.602L88.8861 201.805" stroke="#131313" stroke-width="2"/>
</svg>
