<svg xmlns="http://www.w3.org/2000/svg" viewBox="0 0 220 240" fill="none">
  <!-- listening / watching — attentive eyes -->
  <ellipse cx="110" cy="218" rx="86" ry="10" fill="#000" opacity="0.10"/>
  <path d="M40 132c0-39 31-70 70-70s70 31 70 70v34c0 23-19 42-42 42H82c-23 0-42-19-42-42v-34Z" fill="#994BFF"/>
  <path d="M40 132c0-39 31-70 70-70s70 31 70 70v8H40v-8Z" fill="#7A30E6" opacity="0.30"/>
  <!-- attentive eyes (looking up + right) -->
  <ellipse cx="86" cy="138" rx="11" ry="12" fill="#F4F4F4" stroke="#131313" stroke-width="3"/>
  <ellipse cx="134" cy="138" rx="11" ry="12" fill="#F4F4F4" stroke="#131313" stroke-width="3"/>
  <circle cx="90" cy="135" r="5.5" fill="#131313"/>
  <circle cx="138" cy="135" r="5.5" fill="#131313"/>
  <circle cx="92" cy="133" r="1.8" fill="#F4F4F4"/>
  <circle cx="140" cy="133" r="1.8" fill="#F4F4F4"/>
  <!-- small attentive mouth -->
  <ellipse cx="110" cy="174" rx="6" ry="3" fill="#131313"/>
  <!-- listening ears (sound waves) -->
  <path d="M188 130q10 8 0 16" stroke="#994BFF" stroke-width="3" fill="none"/>
  <path d="M196 122q14 14 0 32" stroke="#994BFF" stroke-width="3" fill="none" opacity="0.6"/>
</svg>
