<svg width="292" height="274" viewBox="0 0 292 274" fill="none" xmlns="http://www.w3.org/2000/svg">
<path d="M248.252 273.5H107.694C101.957 273.5 97.6604 268.186 99.3004 262.69C109.815 227.446 131.415 209.745 166.04 202L181.622 139.202C182.164 137.016 181.154 134.77 179.284 133.514C175.908 131.248 173.366 128.75 170.696 125.022C168.582 122.073 164.119 121.843 161.55 124.405C141.714 144.185 107.344 141.146 88.5404 109.5C80.5307 107.819 74.168 106.592 67.0404 99.5L44.0404 103C16.5502 105.569 -0.959304 82 0.0406889 55C1.04068 28 20.5407 6.5 45.5407 9.5L90.0404 20C98.1349 17.008 103.41 15.6121 111.146 16.278C114.063 16.5291 116.761 14.496 117.019 11.5794L117.267 8.76859C117.697 3.89471 121.942 0.257233 126.824 0.579138L241.709 8.15398C249.459 8.66498 256.118 13.8417 258.524 21.2265L268.089 50.5804C268.673 52.3714 270.213 53.6824 272.074 53.972L274.48 54.3461C284.154 55.8511 291.101 64.4618 290.526 74.2361L288.072 115.961C287.779 120.944 283.486 124.737 278.504 124.413L252.026 122.694C250.188 122.575 248.447 123.486 247.41 125.009C243.053 131.405 239.049 134.732 232.577 138.2C230.529 139.297 229.407 141.602 229.924 143.867L257.026 262.495C258.313 268.13 254.032 273.5 248.252 273.5Z" fill="#F4F4F4"/>
<path d="M206.014 106.981L212.003 260.981H110.474C122.495 228.763 145.9 213.349 172.596 208.819L173.274 208.703L173.409 208.029L193.64 106.981H206.014Z" fill="#994BFF" stroke="#131313" stroke-width="2"/>
<path d="M213.877 106.981L244.822 260.981H149.438C155.053 244.58 161.477 234.14 169.621 227.141C177.98 219.958 188.258 216.304 201.646 213.672L202.437 213.517L202.454 212.712L204.68 106.981H213.877Z" fill="#994BFF" stroke="#131313" stroke-width="2"/>
<path d="M241.395 14.9561L230.794 14.2529L213.001 60.4669L224.34 111.558L277.055 115.054L279.996 70.7168C280.325 65.7571 276.571 61.4699 271.611 61.1409L261.449 60.4669L249.402 21.291C248.305 17.7234 245.12 15.2031 241.395 14.9561Z" fill="#F4F4F4" stroke="#131313" stroke-width="2"/>
<path d="M124.578 7.20801L122.231 42.5917L118.124 104.513L225.128 111.61L231.582 14.3051L124.578 7.20801Z" fill="#994BFF" stroke="#131313" stroke-width="2"/>
<path d="M256.656 91.4891L268.868 86.0798M256.362 95.9121L268.575 90.5027M256.069 100.335L268.282 94.9257M255.776 104.758L267.988 99.3486" stroke="#131313" stroke-width="2"/>
<path fill-rule="evenodd" clip-rule="evenodd" d="M177.378 62.2756C180.435 63.2015 182.163 66.4304 181.237 69.4875C177.001 83.4745 171.598 96.5461 164.683 106.49C157.791 116.401 148.838 123.968 137.396 125.197C126.672 126.349 116.568 122.855 108.629 117.538C100.751 112.262 94.4652 104.831 91.6299 97.2906L102.457 93.2195C104.285 98.0794 108.784 103.72 115.066 107.927C121.288 112.094 128.719 114.495 136.16 113.696C142.883 112.974 149.235 108.445 155.186 99.8864C161.114 91.3618 166.09 79.5916 170.166 66.1346C171.092 63.0775 174.321 61.3498 177.378 62.2756Z" fill="#131313"/>
<path d="M94.8464 99.141C84.0834 98.9177 74.0073 93.2624 70.2935 87.7021L87.2285 84.7376L117.985 88.8214C115.331 94.9813 105.609 99.3644 94.8464 99.141Z" fill="#F4F4F4" stroke="#131313" stroke-width="2"/>
<path d="M106.81 29.8962L107.375 30.012L107.758 29.5794L114.367 22.1195L211.448 50.8701L209.981 73.0012L111.786 95.049L91.8398 87.3146L91.627 87.2319L91.3987 87.2501L40.8095 91.2458L45.7033 17.4616L106.81 29.8962Z" fill="#994BFF" stroke="#131313" stroke-width="2"/>
<path d="M110.131 21.1835C128.064 22.373 141.716 39.9875 140.336 60.7946C138.956 81.6019 123.098 97.26 105.164 96.0707C87.2311 94.8812 73.5799 77.2658 74.9599 56.4585C76.3401 35.6514 92.1981 19.994 110.131 21.1835Z" fill="#F4F4F4" stroke="#131313" stroke-width="2"/>
<path d="M42.7602 16.7151C60.6933 17.9046 74.3446 35.5192 72.9647 56.3263C71.5847 77.1335 55.7265 92.7917 37.7933 91.6023C19.86 90.4129 6.20876 72.7975 7.58881 51.9902C8.969 31.1831 24.827 15.5257 42.7602 16.7151Z" fill="#F4F4F4" stroke="#131313" stroke-width="2"/>
<path d="M38.7435 79.3783C48.454 79.3783 56.3259 68.3991 56.3259 54.8555C56.3259 41.312 48.454 30.3328 38.7435 30.3328C35.9556 30.3328 33.3193 31.2377 30.9773 32.8486C35.3886 33.8473 38.7435 38.8762 38.7435 44.9297C38.7435 51.7014 34.5452 57.191 29.3662 57.191C25.9672 57.191 22.9906 54.8263 21.346 51.2864C21.2242 52.4515 21.1611 53.6433 21.1611 54.8555C21.1611 68.3991 29.033 79.3783 38.7435 79.3783Z" fill="#131313"/>
<path d="M106.297 83.5426C116.008 83.5426 123.88 72.5634 123.88 59.0198C123.88 45.4762 116.008 34.497 106.297 34.497C103.509 34.497 100.873 35.402 98.531 37.0128C102.942 38.0115 106.297 43.0404 106.297 49.0939C106.297 55.8657 102.099 61.3553 96.92 61.3553C93.5209 61.3553 90.5443 58.9906 88.8997 55.4507C88.7779 56.6158 88.7148 57.8075 88.7148 59.0198C88.7148 72.5634 96.5867 83.5426 106.297 83.5426Z" fill="#131313"/>
<path fill-rule="evenodd" clip-rule="evenodd" d="M244.917 75.03C248.085 75.4373 250.323 78.3358 249.916 81.504C247.797 97.9892 244.208 110.662 238.275 119.582C232.096 128.872 223.591 133.761 212.881 134.913C202.156 136.068 192.24 132.562 184.485 127.209C176.786 121.896 170.772 114.462 167.973 107.004L178.802 102.939C180.658 107.882 185.014 113.519 191.055 117.689C197.04 121.82 204.234 124.21 211.643 123.413C219.067 122.614 224.438 119.498 228.644 113.176C233.095 106.482 236.398 95.9323 238.443 80.0289C238.85 76.8607 241.749 74.6226 244.917 75.03Z" fill="#131313"/>
<path d="M174.676 107.855C161.001 112.06 153.781 106.604 152.671 102.929C142.824 102.459 136.622 96.9719 133.374 90.8442C144.599 86.8998 147.762 79.6072 149.368 70.0911C151.375 58.1959 142.82 27.8833 153.534 25.5162C159.921 24.1051 163.614 29.6506 164.571 33.5876C164.373 30.4485 164.549 23.3928 171.51 23.8543C177.371 24.243 180.795 33.8481 181.563 37.5688C181.59 34.1047 182.64 27.4467 188.502 27.8355C197.597 28.4387 199.413 59.3434 194.981 77.1938L205.262 75.2254C201.988 84.794 196.674 91.9512 186.654 95.6013C188.608 97.7696 185.038 104.668 174.676 107.855Z" fill="#F4F4F4" stroke="#131313" stroke-width="2"/>
</svg>
