<svg width="690" height="172" viewBox="0 0 690 172" fill="none" xmlns="http://www.w3.org/2000/svg">
<path d="M86.0001 3.26801C40.3955 3.26801 3.26806 40.3709 3.26806 86C3.26806 131.629 40.3709 168.732 86.0001 168.732C131.629 168.732 168.732 131.629 168.732 86C168.732 40.3709 131.629 3.26801 86.0001 3.26801ZM158.51 107.844C157.626 110.743 154.358 112.144 151.606 110.817C147.478 108.802 142.907 107.721 138.214 107.721H121.407C118.705 107.721 116.493 105.51 116.493 102.807V94.428C116.493 91.7251 118.705 89.5137 121.407 89.5137H156.274C159.247 89.5137 161.508 92.1183 161.139 95.0669C160.648 99.4406 159.739 103.716 158.51 107.844ZM86.4178 161.705C73.2721 161.926 62.5344 150.893 62.5344 137.772V119.638C62.5344 116.935 64.7458 114.724 67.4486 114.724H104.576C107.279 114.724 109.49 116.935 109.49 119.638V138.239C109.49 151.041 99.1703 161.483 86.4178 161.705ZM62.5344 102.782V94.4034C62.5344 91.7006 64.7458 89.4892 67.4486 89.4892H104.576C107.279 89.4892 109.49 91.7006 109.49 94.4034V102.782C109.49 105.485 107.279 107.697 104.576 107.697H67.4486C64.7212 107.697 62.5344 105.485 62.5344 102.782ZM15.7258 89.4892H50.5926C53.2955 89.4892 55.5069 91.7006 55.5069 94.4034V102.782C55.5069 105.485 53.2955 107.697 50.5926 107.697H33.7858C29.0681 107.697 24.5223 108.753 20.4189 110.768C17.6915 112.095 14.3989 110.719 13.5143 107.795C12.2612 103.667 11.3766 99.416 10.8606 95.0177C10.4921 92.0937 12.7526 89.4892 15.7258 89.4892ZM85.6069 10.2954C98.7526 10.0743 109.49 21.1069 109.49 34.228V52.3126C109.49 55.0154 107.279 57.2269 104.576 57.2269H67.4486C64.7458 57.2269 62.5344 55.0154 62.5344 52.3126V33.7611C62.5344 20.9594 72.8543 10.5166 85.6069 10.2954ZM109.49 69.1686V77.5474C109.49 80.2503 107.279 82.4617 104.576 82.4617H67.4486C64.7458 82.4617 62.5344 80.2503 62.5344 77.5474V69.1686C62.5344 66.4657 64.7458 64.2543 67.4486 64.2543H104.576C107.279 64.2543 109.49 66.4657 109.49 69.1686ZM50.5926 82.4617H15.7258C12.8018 82.4617 10.4921 79.9309 10.8361 77.0314C11.3521 72.584 12.2612 68.2594 13.5389 64.0823C14.4235 61.1829 17.6915 59.7823 20.4189 61.1091C24.5469 63.124 29.1172 64.2297 33.7858 64.2297H50.5926C53.2955 64.2297 55.5069 66.4411 55.5069 69.144V77.5474C55.5069 80.2749 53.3201 82.4617 50.5926 82.4617ZM116.518 77.5474V69.1686C116.518 66.4657 118.729 64.2543 121.432 64.2543H138.239C142.907 64.2543 147.502 63.1731 151.606 61.1583C154.333 59.8314 157.626 61.2074 158.486 64.1314C159.739 68.2594 160.648 72.5349 161.164 76.9331C161.508 79.8817 159.247 82.4863 156.299 82.4863H121.432C118.705 82.4617 116.518 80.2749 116.518 77.5474ZM151.237 47.5949C152.638 49.9783 151.827 53.0743 149.394 54.4011C146.003 56.244 142.17 57.2269 138.214 57.2269H121.407C118.705 57.2269 116.493 55.0154 116.493 52.3126V33.7611C116.493 30.8126 116.075 27.9623 115.289 25.2594C114.085 21.0823 118.606 17.544 122.415 19.6326C134.357 26.2177 144.333 35.8989 151.237 47.5949ZM49.5852 19.6326C53.3938 17.544 57.9149 21.0823 56.7109 25.2594C55.9246 27.9623 55.5069 30.8126 55.5069 33.7611V52.3126C55.5069 55.0154 53.2955 57.2269 50.5926 57.2269H33.7858C29.8052 57.2269 25.9966 56.244 22.6058 54.4011C20.1732 53.0743 19.3624 49.9783 20.7875 47.5949C27.6921 35.8989 37.6681 26.2177 49.5852 19.6326ZM20.7629 124.356C19.3623 121.973 20.1732 118.877 22.6058 117.55C25.9966 115.707 29.8298 114.724 33.7858 114.724H50.5926C53.2955 114.724 55.5069 116.935 55.5069 119.638V138.239C55.5069 141.187 55.9246 144.038 56.7109 146.741C57.9149 150.918 53.3938 154.456 49.5852 152.367C37.6681 145.782 27.6675 136.077 20.7629 124.356ZM122.439 152.343C118.631 154.431 114.11 150.893 115.314 146.716C116.1 144.013 116.518 141.163 116.518 138.214V119.614C116.518 116.911 118.729 114.699 121.432 114.699H138.239C142.195 114.699 146.028 115.707 149.443 117.55C151.876 118.877 152.687 121.973 151.286 124.356C144.333 136.077 134.357 145.782 122.439 152.343Z" fill="#994BFF"/>
<path d="M86 172C38.5771 172 0 133.423 0 86C0 38.5771 38.5771 0 86 0C133.423 0 172 38.5771 172 86C172 133.423 133.423 172 86 172ZM86 1.40057C39.3634 1.40057 1.42514 39.3389 1.42514 86C1.42514 132.661 39.3634 170.599 86.0246 170.599C132.686 170.599 170.624 132.661 170.624 86C170.624 39.3389 132.661 1.40057 86 1.40057Z" fill="#994BFF"/>
<path d="M203.09 33.42H222.546V87.948L248.274 62.988H272.082L239.954 94.348L271.954 127.5H248.274L222.546 100.364V127.5H203.09V33.42ZM268.458 95.116C268.458 88.0333 270.037 81.9747 273.194 76.94C276.351 71.9053 280.661 68.108 286.122 65.548C291.583 62.988 297.77 61.708 304.682 61.708C311.509 61.708 317.653 62.988 323.114 65.548C328.575 68.108 332.885 71.9053 336.042 76.94C339.199 81.9747 340.778 88.0333 340.778 95.116C340.778 102.284 339.199 108.428 336.042 113.548C332.885 118.583 328.575 122.38 323.114 124.94C317.653 127.5 311.509 128.78 304.682 128.78C297.77 128.78 291.583 127.5 286.122 124.94C280.661 122.38 276.351 118.583 273.194 113.548C270.037 108.428 268.458 102.284 268.458 95.116ZM287.914 95.116C287.914 100.321 289.407 104.417 292.394 107.404C295.381 110.305 299.477 111.756 304.682 111.756C309.802 111.756 313.813 110.305 316.714 107.404C319.701 104.417 321.194 100.321 321.194 95.116C321.194 89.996 319.701 85.9853 316.714 83.084C313.813 80.1827 309.802 78.732 304.682 78.732C299.477 78.732 295.381 80.1827 292.394 83.084C289.407 85.9853 287.914 89.996 287.914 95.116ZM349.22 62.988H368.676V77.196C370.383 72.588 373.028 68.876 376.612 66.06C380.196 63.1587 384.804 61.708 390.436 61.708C395.641 61.708 399.737 63.0307 402.724 65.676C405.711 68.236 407.887 71.948 409.252 76.812C411.129 72.2893 414.031 68.6627 417.956 65.932C421.881 63.116 426.873 61.708 432.932 61.708C441.38 61.708 447.353 64.524 450.852 70.156C454.436 75.788 456.228 83.6387 456.228 93.708V127.5H436.772V94.988C436.772 88.844 436.089 84.62 434.724 82.316C433.359 79.9267 430.841 78.732 427.172 78.732C421.54 78.732 417.657 80.8653 415.524 85.132C413.476 89.3133 412.452 95.7987 412.452 104.588V127.5H392.996V94.988C392.996 88.844 392.313 84.62 390.948 82.316C389.583 79.9267 387.065 78.732 383.396 78.732C377.764 78.732 373.881 80.8653 371.748 85.132C369.7 89.3133 368.676 95.7987 368.676 104.588V127.5H349.22V62.988ZM464.91 62.988H484.366V75.788C489.315 66.4013 497.721 61.708 509.582 61.708C516.153 61.708 521.657 63.2013 526.094 66.188C530.617 69.0893 533.945 73.1 536.078 78.22C538.297 83.2547 539.406 88.972 539.406 95.372C539.406 101.687 538.297 107.361 536.078 112.396C533.945 117.431 530.617 121.441 526.094 124.428C521.657 127.329 516.153 128.78 509.582 128.78C497.806 128.78 489.401 124.087 484.366 114.7V153.612H464.91V62.988ZM484.494 95.372C484.494 100.833 486.03 104.929 489.102 107.66C492.174 110.391 496.526 111.756 502.158 111.756C507.875 111.756 512.27 110.433 515.342 107.788C518.414 105.057 519.95 100.919 519.95 95.372C519.95 89.8253 518.414 85.6867 515.342 82.956C512.27 80.14 507.875 78.732 502.158 78.732C496.526 78.732 492.174 80.14 489.102 82.956C486.03 85.6867 484.494 89.8253 484.494 95.372ZM545.29 109.836C545.29 104.119 547.21 99.6813 551.05 96.524C554.89 93.2813 561.375 91.148 570.506 90.124L591.37 87.948C591.285 84.0227 590.218 81.164 588.17 79.372C586.122 77.58 582.751 76.684 578.058 76.684C569.951 76.684 565.642 80.1827 565.13 87.18H546.826C546.997 81.8893 548.49 77.324 551.306 73.484C554.207 69.644 558.047 66.7427 562.826 64.78C567.605 62.732 572.938 61.708 578.826 61.708C588.383 61.708 596.106 64.14 601.994 69.004C607.967 73.868 610.954 81.036 610.954 90.508V110.476H620.298V127.5H606.218C603.231 127.5 600.885 126.689 599.178 125.068C597.471 123.447 596.618 121.143 596.618 118.156V111.244C594.911 116.62 591.882 120.887 587.53 124.044C583.263 127.201 576.949 128.78 568.586 128.78C559.711 128.78 553.61 126.817 550.282 122.892C546.954 118.967 545.29 114.615 545.29 109.836ZM564.362 106.636C564.362 108.94 565.173 110.647 566.794 111.756C568.501 112.78 570.677 113.292 573.322 113.292C578.527 113.292 582.837 111.927 586.25 109.196C589.663 106.38 591.37 102.711 591.37 98.188L574.09 100.62C570.591 101.047 568.074 101.687 566.538 102.54C565.087 103.308 564.362 104.673 564.362 106.636ZM656.751 128.78C645.828 128.78 637.551 126.689 631.919 122.508C626.287 118.327 623.471 112.183 623.471 104.076H642.927C642.927 107.745 644.079 110.476 646.383 112.268C648.687 113.975 652.228 114.828 657.007 114.828C660.506 114.828 663.023 114.401 664.559 113.548C666.18 112.609 666.991 111.159 666.991 109.196C666.991 107.831 666.522 106.721 665.583 105.868C664.644 105.015 663.151 104.289 661.103 103.692L641.391 98.316C637.039 97.2067 633.284 95.244 630.127 92.428C626.97 89.5267 625.391 85.5587 625.391 80.524C625.391 74.4653 627.866 69.8147 632.815 66.572C637.85 63.3293 644.847 61.708 653.807 61.708C663.706 61.708 671.428 63.7133 676.975 67.724C682.522 71.6493 685.295 77.3667 685.295 84.876H665.839C665.839 78.6467 661.871 75.532 653.935 75.532C651.119 75.532 648.9 76.0013 647.279 76.94C645.658 77.8787 644.847 79.116 644.847 80.652C644.847 83.2973 647.194 85.2173 651.887 86.412L666.991 90.124C672.879 91.5747 677.572 93.836 681.071 96.908C684.655 99.8947 686.447 104.119 686.447 109.58C686.447 115.809 683.93 120.588 678.895 123.916C673.946 127.159 666.564 128.78 656.751 128.78Z" fill="#F5F5F5"/>
</svg>
