<svg width="640" height="640" viewBox="0 0 640 640" fill="none" xmlns="http://www.w3.org/2000/svg">
<path d="M320 12.16C150.309 12.16 12.1602 150.217 12.1602 320C12.1602 489.783 150.217 627.84 320 627.84C489.783 627.84 627.84 489.783 627.84 320C627.84 150.217 489.783 12.16 320 12.16ZM589.806 401.28C586.514 412.069 574.355 417.28 564.115 412.343C548.755 404.846 531.749 400.823 514.286 400.823H451.749C441.692 400.823 433.463 392.594 433.463 382.537V351.36C433.463 341.303 441.692 333.074 451.749 333.074H581.486C592.549 333.074 600.96 342.766 599.589 353.737C597.76 370.011 594.377 385.92 589.806 401.28ZM321.555 601.691C272.64 602.514 232.686 561.463 232.686 512.64V445.166C232.686 435.109 240.915 426.88 250.972 426.88H389.12C399.177 426.88 407.406 435.109 407.406 445.166V514.377C407.406 562.011 369.006 600.869 321.555 601.691ZM232.686 382.446V351.269C232.686 341.211 240.915 332.983 250.972 332.983H389.12C399.177 332.983 407.406 341.211 407.406 351.269V382.446C407.406 392.503 399.177 400.731 389.12 400.731H250.972C240.823 400.731 232.686 392.503 232.686 382.446ZM58.5145 332.983H188.252C198.309 332.983 206.537 341.211 206.537 351.269V382.446C206.537 392.503 198.309 400.731 188.252 400.731H125.715C108.16 400.731 91.246 404.663 75.9774 412.16C65.8288 417.097 53.5774 411.977 50.286 401.097C45.6231 385.737 42.3317 369.92 40.4117 353.554C39.0402 342.674 47.4517 332.983 58.5145 332.983ZM318.537 38.3086C367.452 37.4857 407.406 78.5372 407.406 127.36V194.651C407.406 204.709 399.177 212.937 389.12 212.937H250.972C240.915 212.937 232.686 204.709 232.686 194.651V125.623C232.686 77.9886 271.086 39.1315 318.537 38.3086ZM407.406 257.371V288.549C407.406 298.606 399.177 306.834 389.12 306.834H250.972C240.915 306.834 232.686 298.606 232.686 288.549V257.371C232.686 247.314 240.915 239.086 250.972 239.086H389.12C399.177 239.086 407.406 247.314 407.406 257.371ZM188.252 306.834H58.5145C47.6345 306.834 39.0402 297.417 40.3202 286.629C42.2402 270.08 45.6231 253.989 50.3774 238.446C53.6688 227.657 65.8288 222.446 75.9774 227.383C91.3374 234.88 108.343 238.994 125.715 238.994H188.252C198.309 238.994 206.537 247.223 206.537 257.28V288.549C206.537 298.697 198.4 306.834 188.252 306.834ZM433.555 288.549V257.371C433.555 247.314 441.783 239.086 451.84 239.086H514.377C531.749 239.086 548.846 235.063 564.115 227.566C574.263 222.629 586.515 227.749 589.715 238.629C594.377 253.989 597.76 269.897 599.68 286.263C600.96 297.234 592.549 306.926 581.577 306.926H451.84C441.692 306.834 433.555 298.697 433.555 288.549ZM562.743 177.097C567.955 185.966 564.937 197.486 555.886 202.423C543.269 209.28 529.006 212.937 514.286 212.937H451.749C441.692 212.937 433.463 204.709 433.463 194.651V125.623C433.463 114.651 431.909 104.046 428.983 93.9886C424.503 78.4457 441.326 65.28 455.497 73.0515C499.932 97.5543 537.052 133.577 562.743 177.097ZM184.503 73.0515C198.675 65.28 215.497 78.4457 211.017 93.9886C208.092 104.046 206.537 114.651 206.537 125.623V194.651C206.537 204.709 198.309 212.937 188.252 212.937H125.715C110.903 212.937 96.7317 209.28 84.1145 202.423C75.0631 197.486 72.046 185.966 77.3488 177.097C103.04 133.577 140.16 97.5543 184.503 73.0515ZM77.2574 462.72C72.046 453.851 75.0631 442.331 84.1145 437.394C96.7317 430.537 110.995 426.88 125.715 426.88H188.252C198.309 426.88 206.537 435.109 206.537 445.166V514.377C206.537 525.349 208.092 535.954 211.017 546.011C215.497 561.554 198.675 574.72 184.503 566.949C140.16 542.446 102.949 506.331 77.2574 462.72ZM455.589 566.857C441.417 574.629 424.595 561.463 429.075 545.92C432 535.863 433.555 525.257 433.555 514.286V445.074C433.555 435.017 441.783 426.789 451.84 426.789H514.377C529.097 426.789 543.36 430.537 556.069 437.394C565.12 442.331 568.137 453.851 562.926 462.72C537.052 506.331 499.932 542.446 455.589 566.857Z" fill="#994BFF"/>
<path d="M320 640C143.543 640 0 496.457 0 320C0 143.543 143.543 0 320 0C496.457 0 640 143.543 640 320C640 496.457 496.457 640 320 640ZM320 5.21143C146.469 5.21143 5.30286 146.377 5.30286 320C5.30286 493.623 146.469 634.789 320.091 634.789C493.714 634.789 634.88 493.623 634.88 320C634.88 146.377 493.623 5.21143 320 5.21143Z" fill="#994BFF"/>
</svg>
